<svg width="14" height="14" viewBox="0 0 14 14" fill="none" xmlns="http://www.w3.org/2000/svg">
<g clip-path="url(#clip0_3915_24089)">
<circle cx="7.05897" cy="6.64686" r="6.47059" fill="#4282FF"/>
<path d="M4.08398 9.46936V9.88708C4.08432 9.91744 4.1047 9.94579 4.13869 9.9632C4.17268 9.98061 4.21611 9.98488 4.2552 9.97468C5.19614 9.7676 6.07683 9.62187 7.05943 9.6328C8.25677 9.6328 9.09269 9.76882 9.86369 9.97462C9.90278 9.98482 9.94621 9.98061 9.9802 9.9632C10.0142 9.94579 10.0346 9.91744 10.0349 9.88708V9.43167C9.22435 9.20834 8.32373 9.07324 7.13123 9.07324C5.93866 9.07318 4.89582 9.24603 4.08398 9.46936Z" fill="white"/>
<path fill-rule="evenodd" clip-rule="evenodd" d="M7.05861 7.90931C7.11288 7.90931 7.16696 7.90961 7.22083 7.9102C8.02886 7.91914 8.7889 7.9948 9.43067 8.12922C9.58336 8.1612 9.72936 8.19651 9.86771 8.23503L10.4293 5.45753L8.39689 6.8799L8.28201 6.68887L7.12297 4.74718L7.06086 4.64026L7.06086 4.64027L7.06086 4.64026L6.99765 4.74718L5.72586 6.8799M10.1717 5.08938L8.53449 6.23515L7.51016 4.51914L7.4494 4.41456C7.36929 4.27664 7.22207 4.19153 7.06258 4.19092C6.90309 4.19031 6.75522 4.27429 6.67405 4.41158L6.61171 4.51703L6.61085 4.51849L5.58724 6.23502L3.94639 5.08913C3.79584 4.98399 3.59647 4.98103 3.44287 5.08166C3.28927 5.18229 3.21236 5.36625 3.24861 5.54625L3.80806 8.32376C3.83272 8.44616 3.90718 8.55278 4.01361 8.61806C4.12003 8.68334 4.24882 8.7014 4.3691 8.66791C5.07747 8.47066 6.02399 8.35866 7.05861 8.35866C8.09319 8.35866 9.03878 8.47066 9.74718 8.66791C9.8674 8.70139 9.99613 8.68336 10.1025 8.61815C10.2089 8.55293 10.2834 8.44641 10.3081 8.32409L10.8697 5.54658C10.9062 5.36646 10.8292 5.18231 10.6755 5.08163C10.5218 4.98094 10.3222 4.98401 10.1717 5.08938Z" fill="white"/>
<path d="M7.50856 3.68128C7.50856 3.92944 7.30735 4.13063 7.05921 4.13063C6.81107 4.13063 6.60986 3.92942 6.60986 3.68128C6.60986 3.43314 6.81107 3.23193 7.05921 3.23193C7.30735 3.23193 7.50856 3.43314 7.50856 3.68128Z" fill="white"/>
<path d="M3.68922 4.6415C3.68947 4.52214 3.64237 4.40762 3.55817 4.32307C3.47397 4.23861 3.35952 4.191 3.24026 4.19092C3.12098 4.19083 3.00646 4.23819 2.92208 4.32256C2.8378 4.40693 2.79044 4.52137 2.79053 4.64064C2.79061 4.76 2.83822 4.87435 2.92268 4.95855C3.00722 5.04275 3.12175 5.08985 3.24111 5.0896C3.35996 5.0896 3.47389 5.04233 3.55792 4.9583C3.64195 4.87427 3.68922 4.76034 3.68922 4.6415Z" fill="white"/>
<path d="M11.3279 4.64033C11.3279 4.88844 11.1267 5.08965 10.8785 5.08965C10.6304 5.08965 10.4292 4.88846 10.4292 4.64033C10.4292 4.39212 10.6304 4.19092 10.8785 4.19092C11.1267 4.19092 11.3279 4.39211 11.3279 4.64033Z" fill="white"/>
</g>
<defs>
<clipPath id="clip0_3915_24089">
<rect width="12.9412" height="12.9412" fill="white" transform="translate(0.588379 0.17627)"/>
</clipPath>
</defs>
</svg>
