<svg width="60" height="60" viewBox="0 0 60 60" fill="none" xmlns="http://www.w3.org/2000/svg">
<g clip-path="url(#clip0_3251_29083)">
<path d="M48.68 22.71C47.62 19.85 44.89 17.95 41.84 17.95H18.99C15.94 17.95 13.21 19.85 12.15 22.71L6.66 37.56C5.18 41.55 7.41 45.95 11.5 47.12C15.14 48.16 18.96 46.25 20.32 42.72L22.2 38.82C22.63 37.7 23.71 36.95 24.92 36.95H35.92C37.12 36.95 38.21 37.69 38.64 38.82L40.52 42.72C41.88 46.25 45.7 48.16 49.34 47.12C53.43 45.95 55.66 41.55 54.18 37.56L48.68 22.71V22.71Z" fill="#3D3D3D"/>
<path d="M41.6699 25.45C42.4983 25.45 43.1699 24.7784 43.1699 23.95C43.1699 23.1216 42.4983 22.45 41.6699 22.45C40.8415 22.45 40.1699 23.1216 40.1699 23.95C40.1699 24.7784 40.8415 25.45 41.6699 25.45Z" fill="#5C8EE0"/>
<path d="M41.6699 31.45C42.4983 31.45 43.1699 30.7784 43.1699 29.95C43.1699 29.1216 42.4983 28.45 41.6699 28.45C40.8415 28.45 40.1699 29.1216 40.1699 29.95C40.1699 30.7784 40.8415 31.45 41.6699 31.45Z" fill="#FFC74F"/>
<path d="M44.6699 28.45C45.4983 28.45 46.1699 27.7784 46.1699 26.95C46.1699 26.1216 45.4983 25.45 44.6699 25.45C43.8415 25.45 43.1699 26.1216 43.1699 26.95C43.1699 27.7784 43.8415 28.45 44.6699 28.45Z" fill="#FF4343"/>
<path d="M38.6699 28.45C39.4984 28.45 40.1699 27.7784 40.1699 26.95C40.1699 26.1216 39.4984 25.45 38.6699 25.45C37.8415 25.45 37.1699 26.1216 37.1699 26.95C37.1699 27.7784 37.8415 28.45 38.6699 28.45Z" fill="#5DC441"/>
<path d="M21.3399 25.62H20.0099V24.29C20.0099 23.55 19.4099 22.96 18.6799 22.96C17.9399 22.96 17.3499 23.56 17.3499 24.29V25.62H16.0199C15.2799 25.62 14.6899 26.22 14.6899 26.95C14.6899 27.69 15.2899 28.28 16.0199 28.28H17.3499V29.61C17.3499 30.35 17.9499 30.94 18.6799 30.94C19.4199 30.94 20.0099 30.34 20.0099 29.61V28.28H21.3399C22.0799 28.28 22.6699 27.68 22.6699 26.95C22.6699 26.21 22.0699 25.62 21.3399 25.62V25.62Z" fill="#9C9C9C"/>
<path d="M22.42 40.95C24.9053 40.95 26.92 38.9353 26.92 36.45C26.92 33.9647 24.9053 31.95 22.42 31.95C19.9348 31.95 17.92 33.9647 17.92 36.45C17.92 38.9353 19.9348 40.95 22.42 40.95Z" fill="#9C9C9C"/>
<path d="M22.42 32.95C24.35 32.95 25.92 34.52 25.92 36.45C25.92 38.38 24.35 39.95 22.42 39.95C20.49 39.95 18.92 38.38 18.92 36.45C18.92 34.52 20.49 32.95 22.42 32.95ZM22.42 30.95C19.39 30.95 16.92 33.42 16.92 36.45C16.92 39.48 19.39 41.95 22.42 41.95C25.45 41.95 27.92 39.48 27.92 36.45C27.92 33.42 25.45 30.95 22.42 30.95Z" fill="#3D3D3D"/>
<path d="M38.42 40.95C40.9053 40.95 42.92 38.9353 42.92 36.45C42.92 33.9647 40.9053 31.95 38.42 31.95C35.9348 31.95 33.92 33.9647 33.92 36.45C33.92 38.9353 35.9348 40.95 38.42 40.95Z" fill="#9C9C9C"/>
<path d="M38.42 32.95C40.35 32.95 41.92 34.52 41.92 36.45C41.92 38.38 40.35 39.95 38.42 39.95C36.49 39.95 34.92 38.38 34.92 36.45C34.92 34.52 36.49 32.95 38.42 32.95ZM38.42 30.95C35.39 30.95 32.92 33.42 32.92 36.45C32.92 39.48 35.39 41.95 38.42 41.95C41.45 41.95 43.92 39.48 43.92 36.45C43.92 33.42 41.45 30.95 38.42 30.95Z" fill="#3D3D3D"/>
<path d="M29.92 19.95C29.92 19.95 28.92 12.95 34.92 12.95" stroke="#3D3D3D" stroke-width="1.5" stroke-miterlimit="10" stroke-linecap="round"/>
</g>
<defs>
<clipPath id="clip0_3251_29083">
<rect width="48.44" height="35.2" fill="white" transform="translate(6.19995 12.2)"/>
</clipPath>
</defs>
</svg>
