<svg width="60" height="60" viewBox="0 0 60 60" fill="none" xmlns="http://www.w3.org/2000/svg">
<g clip-path="url(#clip0_3251_29080)">
<path d="M21.47 15.28H23.66C28.34 15.28 32.13 19.08 32.13 23.75V42.9C32.13 46.07 29.55 48.65 26.38 48.65H17.61C15.07 48.65 13 46.59 13 44.04V23.75C13 19.08 16.8 15.28 21.47 15.28Z" fill="#D6E090"/>
<path d="M26.55 13.81H18.59C17.8058 13.81 17.17 14.4458 17.17 15.23V15.33C17.17 16.1142 17.8058 16.75 18.59 16.75H26.55C27.3343 16.75 27.97 16.1142 27.97 15.33V15.23C27.97 14.4458 27.3343 13.81 26.55 13.81Z" fill="#BFC660"/>
<path d="M23.3 10.12V14.07" stroke="#BFC660" stroke-width="1.5" stroke-miterlimit="10" stroke-linecap="round"/>
<path d="M18.38 9.14999H23.79" stroke="#BFC660" stroke-width="2.3" stroke-miterlimit="10" stroke-linecap="round"/>
<path d="M37.5 46.15C42.1944 46.15 46 42.3444 46 37.65C46 32.9556 42.1944 29.15 37.5 29.15C32.8056 29.15 29 32.9556 29 37.65C29 42.3444 32.8056 46.15 37.5 46.15Z" fill="#9DA866"/>
<path d="M37.5 43.15C40.5376 43.15 43 40.6876 43 37.65C43 34.6124 40.5376 32.15 37.5 32.15C34.4624 32.15 32 34.6124 32 37.65C32 40.6876 34.4624 43.15 37.5 43.15Z" fill="#B5D7E2"/>
<path d="M43 44.15H32C29.7909 44.15 28 45.9409 28 48.15C28 50.3591 29.7909 52.15 32 52.15H43C45.2091 52.15 47 50.3591 47 48.15C47 45.9409 45.2091 44.15 43 44.15Z" fill="#9DA866"/>
<path d="M43.07 45.55H31.93C31.1402 45.55 30.5 46.1902 30.5 46.98V47.12C30.5 47.9098 31.1402 48.55 31.93 48.55H43.07C43.8598 48.55 44.5 47.9098 44.5 47.12V46.98C44.5 46.1902 43.8598 45.55 43.07 45.55Z" fill="#AEB881"/>
</g>
<defs>
<clipPath id="clip0_3251_29080">
<rect width="34" height="44.15" fill="white" transform="translate(13 8)"/>
</clipPath>
</defs>
</svg>
