<svg width="16" height="16" viewBox="0 0 16 16" fill="none" xmlns="http://www.w3.org/2000/svg">
<path d="M2.96744 9.27222L7.60252 13.6264C7.65436 13.6751 7.68028 13.6994 7.70496 13.7175C7.88082 13.8463 8.11983 13.8463 8.29569 13.7175C8.32037 13.6994 8.34629 13.6751 8.39813 13.6264L13.0332 9.27222C14.3373 8.04714 14.4957 6.03115 13.3989 4.61746L13.1926 4.35164C11.8805 2.66047 9.24675 2.94409 8.32477 4.87585C8.19454 5.14872 7.80612 5.14872 7.67588 4.87585C6.75391 2.94409 4.12014 2.66047 2.80802 4.35164L2.60178 4.61746C1.50496 6.03115 1.66332 8.04714 2.96744 9.27222Z" stroke="#CCCCCC"/>
</svg>
