<svg width="60" height="60" viewBox="0 0 60 60" fill="none" xmlns="http://www.w3.org/2000/svg">
<g clip-path="url(#clip0_3251_29076)">
<path d="M50.09 7.20001H9.91C8.30285 7.20001 7 8.50286 7 10.11V49.41C7 51.0172 8.30285 52.32 9.91 52.32H50.09C51.6971 52.32 53 51.0172 53 49.41V10.11C53 8.50286 51.6971 7.20001 50.09 7.20001Z" fill="#DDCCBF"/>
<path d="M45.85 10.37H14.15C12.5428 10.37 11.24 11.6728 11.24 13.28V18.06C11.24 19.6671 12.5428 20.97 14.15 20.97H45.85C47.4571 20.97 48.76 19.6671 48.76 18.06V13.28C48.76 11.6728 47.4571 10.37 45.85 10.37Z" fill="#B8A08F"/>
<path d="M30 17.17C30.8284 17.17 31.5 16.4984 31.5 15.67C31.5 14.8416 30.8284 14.17 30 14.17C29.1716 14.17 28.5 14.8416 28.5 15.67C28.5 16.4984 29.1716 17.17 30 17.17Z" fill="#F9F3EF"/>
<path d="M45.85 24.01H14.15C12.5428 24.01 11.24 25.3129 11.24 26.92V31.7C11.24 33.3072 12.5428 34.61 14.15 34.61H45.85C47.4571 34.61 48.76 33.3072 48.76 31.7V26.92C48.76 25.3129 47.4571 24.01 45.85 24.01Z" fill="#B8A08F"/>
<path d="M30 30.82C30.8284 30.82 31.5 30.1484 31.5 29.32C31.5 28.4916 30.8284 27.82 30 27.82C29.1716 27.82 28.5 28.4916 28.5 29.32C28.5 30.1484 29.1716 30.82 30 30.82Z" fill="#F9F3EF"/>
<path d="M45.85 37.66H14.15C12.5428 37.66 11.24 38.9629 11.24 40.57V45.35C11.24 46.9572 12.5428 48.26 14.15 48.26H45.85C47.4571 48.26 48.76 46.9572 48.76 45.35V40.57C48.76 38.9629 47.4571 37.66 45.85 37.66Z" fill="#B8A08F"/>
<path d="M30 44.46C30.8284 44.46 31.5 43.7884 31.5 42.96C31.5 42.1316 30.8284 41.46 30 41.46C29.1716 41.46 28.5 42.1316 28.5 42.96C28.5 43.7884 29.1716 44.46 30 44.46Z" fill="#F9F3EF"/>
</g>
<defs>
<clipPath id="clip0_3251_29076">
<rect width="46" height="45.12" fill="white" transform="translate(7 7.20001)"/>
</clipPath>
</defs>
</svg>
