<svg width="48" height="48" viewBox="0 0 48 48" fill="none" xmlns="http://www.w3.org/2000/svg">
<rect width="48" height="48" rx="24" fill="#98CE6E"/>
<path d="M13.5 23.8333C13.5 19.4336 13.5 17.2337 14.8668 15.8668C16.2337 14.5 18.4336 14.5 22.8333 14.5H25.1667C29.5664 14.5 31.7663 14.5 33.1332 15.8668C34.5 17.2337 34.5 19.4336 34.5 23.8333V26.1667C34.5 30.5664 34.5 32.7663 33.1332 34.1332C31.7663 35.5 29.5664 35.5 25.1667 35.5H22.8333C18.4336 35.5 16.2337 35.5 14.8668 34.1332C13.5 32.7663 13.5 30.5664 13.5 26.1667V23.8333Z" stroke="white" stroke-width="1.75"/>
<path fill-rule="evenodd" clip-rule="evenodd" d="M32.1657 27.2613L31.9698 27.0655L31.9326 27.0282L31.9325 27.0282C31.3675 26.4631 30.8883 25.9839 30.4562 25.6452C29.9985 25.2865 29.5041 25.0113 28.8967 24.9625C28.7437 24.9503 28.5899 24.9503 28.4369 24.9625C27.8296 25.0113 27.3351 25.2865 26.8774 25.6452C26.4453 25.9839 25.9661 26.4631 25.4011 27.0282L25.3638 27.0655C24.9227 27.5066 24.6534 27.7732 24.441 27.9356C24.3854 27.9781 24.3448 28.0045 24.3172 28.0206C24.2974 27.9954 24.2696 27.9558 24.2337 27.8956C24.0968 27.666 23.9458 27.3185 23.7001 26.745L23.6317 26.5856L23.6036 26.5201C23.1004 25.3457 22.684 24.3742 22.2562 23.6788C21.811 22.9552 21.2453 22.3485 20.3692 22.1798C19.4931 22.0111 18.7426 22.3642 18.0605 22.8708C17.4243 23.3432 16.7015 24.0612 15.8335 24.9291V26.1666C15.8335 26.6079 15.8337 27.0188 15.8351 27.4024L16.9412 26.2963C17.9079 25.3296 18.5645 24.6762 19.1038 24.2757C19.6286 23.886 19.8723 23.8663 20.0383 23.8983C20.2042 23.9302 20.4232 24.039 20.7657 24.5958C21.1177 25.1679 21.4847 26.0184 22.0232 27.275L22.0916 27.4344L22.1132 27.485C22.3302 27.9913 22.5265 28.4496 22.7307 28.792C22.9479 29.1562 23.2663 29.5523 23.8019 29.7119C23.9211 29.7474 24.0435 29.771 24.1674 29.7823C24.724 29.833 25.1667 29.5835 25.5036 29.326C25.8204 29.0839 26.1729 28.7314 26.5624 28.3418L26.6013 28.3029C27.2137 27.6905 27.6183 27.288 27.957 27.0226C28.2796 26.7697 28.4504 26.7171 28.5769 26.7069C28.6367 26.7021 28.6969 26.7021 28.7568 26.7069C28.8832 26.7171 29.0541 26.7697 29.3767 27.0226C29.7154 27.288 30.12 27.6905 30.7324 28.3029L32.123 29.6935C32.1538 29.021 32.163 28.2257 32.1657 27.2613ZM24.2693 28.044C24.2693 28.0439 24.271 28.0432 24.2743 28.0424C24.2708 28.0437 24.2692 28.0441 24.2693 28.044ZM24.3511 28.0585C24.3505 28.058 24.3498 28.0574 24.3488 28.0567C24.3508 28.0585 24.352 28.0595 24.3526 28.0599C24.3528 28.0601 24.3529 28.0602 24.3529 28.0601C24.3529 28.06 24.3523 28.0594 24.3511 28.0585Z" fill="white"/>
<circle cx="29.25" cy="19.75" r="1.75" fill="white"/>
</svg>
