<svg width="60" height="60" viewBox="0 0 60 60" fill="none" xmlns="http://www.w3.org/2000/svg">
<g clip-path="url(#clip0_3251_29073)">
<path d="M30 50.84C41.5538 50.84 50.92 41.4738 50.92 29.92C50.92 18.3662 41.5538 9 30 9C18.4462 9 9.07996 18.3662 9.07996 29.92C9.07996 41.4738 18.4462 50.84 30 50.84Z" fill="#F5BA56"/>
<path d="M24.1 33.88C21.49 29.93 16.17 28.83 12.22 31.44L7.35996 34.65C3.39996 37.26 2.30996 42.58 4.91996 46.54C7.52996 50.5 12.85 51.59 16.8 48.98L21.66 45.77C25.61 43.16 26.71 37.84 24.1 33.89V33.88ZM19.19 42.24L14.54 45.31C12.57 46.61 9.91996 46.07 8.61996 44.1C7.31996 42.13 7.85996 39.48 9.82996 38.18L14.48 35.11C16.45 33.81 19.1 34.35 20.4 36.32C21.7 38.29 21.16 40.94 19.19 42.24V42.24Z" fill="#F5BA56"/>
<path d="M55.0799 13.3C52.4699 9.35003 47.1499 8.25003 43.1999 10.86L38.3399 14.07C34.3899 16.68 33.2899 22 35.8999 25.95C38.5099 29.9 43.8299 31 47.7799 28.39L52.6399 25.18C56.5899 22.57 57.6899 17.25 55.0799 13.3V13.3ZM50.1699 21.66L45.5199 24.73C43.5499 26.03 40.8999 25.49 39.5999 23.52C38.2999 21.55 38.8399 18.9 40.8099 17.6L45.4599 14.53C47.4299 13.23 50.0799 13.77 51.3799 15.74C52.6799 17.71 52.1399 20.36 50.1699 21.66Z" fill="#F5BA56"/>
<path d="M29.9999 47.12C39.4992 47.12 47.1999 39.4193 47.1999 29.92C47.1999 20.4207 39.4992 12.72 29.9999 12.72C20.5006 12.72 12.7999 20.4207 12.7999 29.92C12.7999 39.4193 20.5006 47.12 29.9999 47.12Z" fill="#D83800"/>
<path d="M33.8599 18.39C31.6899 19.14 29.9499 20.99 29.4699 23.26C29.1999 24.57 29.5299 25.84 29.4099 27.15C29.2999 28.32 28.4299 29.2 27.5299 29.87C27.0999 30.19 26.8799 30.74 27.1699 31.24C27.4199 31.67 28.0999 31.92 28.5399 31.6C29.4999 30.88 30.4399 30.06 30.9599 28.95C31.5699 27.65 31.3899 26.34 31.3399 24.96C31.2699 22.94 32.4399 21 34.3999 20.33C35.6099 19.91 35.0899 17.98 33.8699 18.4L33.8599 18.39Z" fill="#FF972E"/>
<path d="M37.2699 20.67C35.8999 20.61 34.4599 21.19 33.5499 22.22C32.5599 23.35 32.1799 24.8 32.3999 26.27C32.4399 26.5 32.6699 26.75 32.8599 26.87C33.0699 27 33.3899 27.05 33.6299 26.97C34.1899 26.79 34.4099 26.3 34.3299 25.74C34.3699 26.03 34.3299 25.79 34.3299 25.74C34.3299 25.67 34.3299 25.6 34.3199 25.54C34.3199 25.41 34.3199 25.29 34.3199 25.16C34.3199 25.14 34.3199 25 34.3399 24.99C34.3199 25.14 34.3199 25.16 34.3399 25.05V24.98C34.3799 24.85 34.4099 24.71 34.4499 24.58C34.4699 24.53 34.4799 24.47 34.4999 24.42C34.5099 24.39 34.5999 24.17 34.5399 24.32C34.4799 24.47 34.5599 24.28 34.5699 24.25C34.5999 24.19 34.6299 24.13 34.6599 24.07C34.7299 23.95 34.7999 23.84 34.8799 23.72C34.9799 23.57 34.7899 23.82 34.8699 23.73C34.9199 23.68 34.9599 23.63 34.9999 23.58C35.0799 23.49 35.1699 23.4 35.2699 23.32C35.3199 23.28 35.3899 23.24 35.4299 23.19C35.3599 23.27 35.2999 23.29 35.4199 23.2C35.5199 23.13 35.6299 23.06 35.7399 23C35.7999 22.97 35.8599 22.94 35.9199 22.91C35.9499 22.89 35.9799 22.88 36.0099 22.87C36.0799 22.84 36.0499 22.85 35.9299 22.9C35.9899 22.83 36.1999 22.8 36.2799 22.78C36.3999 22.74 36.5199 22.72 36.6499 22.69C36.7499 22.67 36.8799 22.69 36.6499 22.69C36.7099 22.69 36.7899 22.68 36.8499 22.67C36.9899 22.67 37.1199 22.67 37.2599 22.67C37.7799 22.69 38.2799 22.19 38.2599 21.67C38.2299 21.11 37.8199 20.7 37.2599 20.67H37.2699Z" fill="#FF972E"/>
<path d="M31.1999 37.62C31.1499 37.83 31.0899 38.04 31.0099 38.24C30.9299 38.46 31.0999 38.05 31.0199 38.22C30.9999 38.27 30.9799 38.31 30.9499 38.36C30.8999 38.45 30.8599 38.54 30.8099 38.63C30.7099 38.81 30.5899 38.98 30.4699 39.15C30.6599 38.88 30.4599 39.16 30.3999 39.23C30.3299 39.31 30.2499 39.4 30.1699 39.48C30.0999 39.55 30.0199 39.62 29.9399 39.69C29.8999 39.72 29.8599 39.76 29.8199 39.79C29.6399 39.94 29.9899 39.67 29.8399 39.78C29.6699 39.9 29.4999 40.02 29.3199 40.12C29.2299 40.17 29.1399 40.22 29.0399 40.26C28.9899 40.28 28.9399 40.3 28.8999 40.32C29.1699 40.18 29.0199 40.27 28.9499 40.3C28.7399 40.38 28.5199 40.44 28.3099 40.49C27.7999 40.6 27.4499 41.22 27.6099 41.72C27.7799 42.26 28.2899 42.54 28.8399 42.42C30.9099 41.96 32.6599 40.22 33.1299 38.16C33.2499 37.65 32.9699 37.05 32.4299 36.93C31.9199 36.81 31.3299 37.08 31.1999 37.63V37.62Z" fill="#FF972E"/>
<path d="M23.5199 19.12C22.9599 19.59 22.4799 20.18 22.1399 20.82C21.7499 21.55 21.5299 22.31 21.4299 23.12C21.3999 23.36 21.5599 23.67 21.7199 23.83C21.8899 24 22.1799 24.13 22.4299 24.12C22.6799 24.11 22.9599 24.02 23.1399 23.83C23.3299 23.62 23.3999 23.4 23.4299 23.12V23.07L23.3999 23.34C23.4599 22.89 23.5799 22.46 23.7499 22.04L23.6499 22.28C23.8099 21.91 23.9999 21.56 24.2399 21.24C24.2899 21.18 24.4099 21.07 24.2099 21.28C24.2399 21.25 24.2599 21.21 24.2899 21.18C24.3499 21.11 24.4099 21.04 24.4799 20.97C24.6199 20.82 24.7699 20.68 24.9299 20.54C25.1199 20.38 25.2199 20.07 25.2199 19.83C25.2199 19.58 25.1099 19.29 24.9299 19.12C24.7499 18.95 24.4899 18.82 24.2199 18.83C23.9499 18.84 23.7299 18.94 23.5099 19.12H23.5199Z" fill="#566817"/>
<path d="M35.9699 33.59L35.0499 34.12C34.9299 34.18 34.8399 34.27 34.7699 34.38C34.6799 34.48 34.6199 34.59 34.5899 34.72C34.5499 34.85 34.5399 34.99 34.5699 35.12C34.5699 35.25 34.6199 35.38 34.6899 35.49L34.8499 35.69C34.9699 35.81 35.1199 35.9 35.2899 35.95L35.5599 35.99C35.7399 35.99 35.9099 35.94 36.0599 35.85L36.9799 35.32C37.0999 35.26 37.1899 35.17 37.2599 35.06C37.3499 34.96 37.4099 34.85 37.4399 34.72C37.4799 34.59 37.4899 34.45 37.4599 34.32C37.4599 34.19 37.4099 34.06 37.3399 33.95L37.1799 33.75C37.0599 33.63 36.9099 33.54 36.7399 33.49L36.4699 33.45C36.2899 33.45 36.1199 33.5 35.9699 33.59V33.59Z" fill="#566817"/>
<path d="M23.5199 32.07C23.3899 32.49 23.3999 32.93 23.4799 33.36C23.5199 33.57 23.6099 33.76 23.6899 33.95C23.7699 34.14 23.9199 34.32 24.0499 34.48C24.1399 34.58 24.2499 34.65 24.3699 34.69C24.4899 34.75 24.6199 34.78 24.7599 34.78C25.0099 34.78 25.2999 34.67 25.4699 34.49C25.6399 34.31 25.7699 34.05 25.7599 33.78L25.7199 33.51C25.6699 33.34 25.5899 33.19 25.4599 33.07L25.4299 33.04L25.5899 33.24C25.5099 33.13 25.4399 33.02 25.3899 32.89L25.4899 33.13C25.4399 33 25.3999 32.87 25.3799 32.74L25.4199 33.01C25.3999 32.87 25.3999 32.73 25.4199 32.58L25.3799 32.85C25.3899 32.77 25.4099 32.69 25.4299 32.61C25.4699 32.48 25.4799 32.34 25.4499 32.21C25.4499 32.08 25.3999 31.95 25.3299 31.84C25.2099 31.63 24.9699 31.43 24.7299 31.38C24.4699 31.32 24.1899 31.33 23.9599 31.48C23.7299 31.63 23.5799 31.82 23.4999 32.08L23.5199 32.07Z" fill="#566817"/>
<path d="M21.82 40.51C21.83 40.57 21.85 40.63 21.87 40.69C21.92 40.82 21.98 40.96 22.05 41.09C22.12 41.22 22.22 41.33 22.31 41.44C22.35 41.49 22.4 41.54 22.45 41.58C22.56 41.67 22.67 41.76 22.8 41.84C22.93 41.92 23.06 41.97 23.2 42.02C23.4 42.1 23.62 42.13 23.83 42.14C23.97 42.14 24.1 42.12 24.22 42.05C24.34 42.01 24.45 41.94 24.54 41.84C24.64 41.75 24.71 41.64 24.75 41.52C24.81 41.4 24.84 41.27 24.84 41.13L24.8 40.86C24.75 40.69 24.67 40.54 24.54 40.42L24.34 40.26C24.18 40.17 24.02 40.12 23.84 40.12C23.81 40.12 23.77 40.12 23.74 40.12L24.01 40.16C23.92 40.15 23.83 40.12 23.74 40.09L23.98 40.19C23.89 40.15 23.8 40.1 23.73 40.04L23.93 40.2C23.85 40.14 23.78 40.07 23.72 39.99L23.88 40.19C23.82 40.11 23.77 40.03 23.73 39.94L23.83 40.18C23.8 40.12 23.78 40.05 23.77 39.98C23.74 39.85 23.68 39.74 23.59 39.64C23.52 39.53 23.43 39.45 23.31 39.38C23.2 39.31 23.07 39.27 22.94 39.26C22.81 39.23 22.67 39.24 22.54 39.28L22.3 39.38C22.15 39.47 22.03 39.59 21.94 39.74L21.84 39.98C21.79 40.16 21.79 40.33 21.84 40.51H21.82Z" fill="#566817"/>
<path d="M38.76 30.54L38.6 30.51C37.8 30.34 37.54 29.33 38.15 28.79L38.29 28.67C38.9 28.13 39.86 28.51 39.94 29.32V29.48C40.02 30.15 39.41 30.69 38.75 30.55L38.76 30.54Z" fill="#FFE7CF"/>
<path d="M18.53 34.72H18.51C17.71 34.44 17.55 33.37 18.24 32.88H18.26C18.95 32.38 19.91 32.88 19.89 33.73V33.75C19.88 34.45 19.19 34.94 18.52 34.71L18.53 34.72Z" fill="#FFE7CF"/>
<path d="M22.1599 30.4L21.7399 30.79C20.8499 31.61 19.4099 31.07 19.2799 29.87L19.1999 29.2C19.0599 28 20.3499 27.16 21.3899 27.76L21.8899 28.05C22.7499 28.54 22.8899 29.74 22.1599 30.41V30.4Z" fill="#FFE7CF"/>
</g>
<defs>
<clipPath id="clip0_3251_29073">
<rect width="53" height="41.84" fill="white" transform="translate(3.5 9)"/>
</clipPath>
</defs>
</svg>
