<svg width="24" height="24" viewBox="0 0 24 24" fill="none" xmlns="http://www.w3.org/2000/svg">
<path d="M14.1361 3.36144L14.8824 3.28681L14.1361 3.36144ZM13.9838 2.54161L13.3172 2.8854V2.8854L13.9838 2.54161ZM14.4311 4.81793L15.0274 4.36304L15.0274 4.36303L14.4311 4.81793ZM15.3595 5.20248L15.2595 4.45917H15.2595L15.3595 5.20248ZM16.5979 4.38113L17.0728 4.9616L17.0728 4.9616L16.5979 4.38113ZM17.2853 3.90918L17.5135 4.62361L17.2853 3.90918ZM17.9872 3.94419L18.2854 3.25602L18.2854 3.25602L17.9872 3.94419ZM18.6243 4.4822L18.094 5.01253V5.01253L18.6243 4.4822ZM19.5178 5.37567L20.0481 4.84534V4.84534L19.5178 5.37567ZM20.0558 6.01275L20.744 5.71457L20.744 5.71456L20.0558 6.01275ZM20.0908 6.71464L20.8052 6.94288L20.8052 6.94287L20.0908 6.71464ZM19.6188 7.4021L19.0384 6.92717L19.0384 6.92717L19.6188 7.4021ZM18.7975 8.64056L18.0542 8.54057V8.54058L18.7975 8.64056ZM19.182 9.56893L18.7271 10.1652V10.1652L19.182 9.56893ZM20.6385 9.86385L20.7132 9.11758L20.6385 9.86385ZM21.4584 10.0162L21.8022 9.34969L21.8022 9.34968L21.4584 10.0162ZM21.9299 10.5373L22.6274 10.2615V10.2615L21.9299 10.5373ZM21.93 13.4626L21.2325 13.1869L21.2325 13.1869L21.93 13.4626ZM21.4583 13.9838L21.8021 14.6504V14.6504L21.4583 13.9838ZM20.6386 14.1361L20.564 13.3899L20.5396 13.3923L20.5153 13.3963L20.6386 14.1361ZM20.6386 14.1361L20.7132 14.8824L20.7377 14.88L20.7619 14.8759L20.6386 14.1361ZM19.1825 14.4309L18.7278 13.8345V13.8345L19.1825 14.4309ZM18.7979 15.3596L18.0546 15.4597V15.4597L18.7979 15.3596ZM19.619 16.5976L19.0385 17.0725V17.0725L19.619 16.5976ZM20.0908 17.2848L19.3764 17.5131V17.5131L20.0908 17.2848ZM20.0558 17.9869L19.3676 17.6886L19.3676 17.6887L20.0558 17.9869ZM19.5179 18.6238L20.0483 19.1541H20.0483L19.5179 18.6238ZM18.6243 19.5174L18.094 18.987L18.094 18.987L18.6243 19.5174ZM17.9873 20.0554L18.2855 20.7435L18.2855 20.7435L17.9873 20.0554ZM17.2854 20.0904L17.0571 20.8048H17.0571L17.2854 20.0904ZM16.5979 19.6184L17.0729 19.0379L17.0664 19.0328L16.5979 19.6184ZM16.5979 19.6184L16.1229 20.1989L16.1294 20.2041L16.5979 19.6184ZM15.3595 18.7971L15.4595 18.0538H15.4595L15.3595 18.7971ZM14.4311 19.1816L15.0274 19.6365L15.0274 19.6365L14.4311 19.1816ZM14.1362 20.6383L13.3899 20.5637L14.1362 20.6383ZM13.9837 21.4585L13.3172 21.1146L13.3172 21.1146L13.9837 21.4585ZM13.4628 21.9299L13.187 21.2325H13.187L13.4628 21.9299ZM10.5373 21.9299L10.8131 21.2325L10.5373 21.9299ZM10.0162 21.4584L10.6828 21.1146V21.1146L10.0162 21.4584ZM9.86385 20.6385L9.11758 20.7132V20.7132L9.86385 20.6385ZM9.56892 19.182L8.97263 19.6369L8.97263 19.6369L9.56892 19.182ZM8.64057 18.7975L8.5406 18.0542H8.5406L8.64057 18.7975ZM7.40208 19.6189L6.92715 19.0384L6.91527 19.0481L6.9038 19.0583L7.40208 19.6189ZM7.40206 19.6189L7.87699 20.1993L7.88887 20.1896L7.90034 20.1794L7.40206 19.6189ZM6.71458 20.0908L6.9428 20.8053H6.9428L6.71458 20.0908ZM6.01272 20.0558L5.71454 20.744H5.71454L6.01272 20.0558ZM5.37561 19.5178L5.90594 18.9875H5.90594L5.37561 19.5178ZM4.48217 18.6243L3.95184 19.1547L3.95184 19.1547L4.48217 18.6243ZM3.94414 17.9873L4.63232 17.6891H4.63232L3.94414 17.9873ZM3.90913 17.2854L4.62356 17.5136L4.62356 17.5136L3.90913 17.2854ZM4.3811 16.5979L4.96157 17.0728L4.96157 17.0728L4.3811 16.5979ZM5.20247 15.3594L5.94578 15.4594L5.20247 15.3594ZM4.81792 14.4311L5.27282 13.8348L5.27282 13.8348L4.81792 14.4311ZM3.36143 14.1361L3.2868 14.8824H3.2868L3.36143 14.1361ZM2.54161 13.9838L2.8854 13.3172H2.8854L2.54161 13.9838ZM2.07005 13.4627L1.37258 13.7384L1.37258 13.7385L2.07005 13.4627ZM2.07008 10.5372L1.37265 10.2614L1.37265 10.2614L2.07008 10.5372ZM2.54152 10.0163L2.19767 9.34975L2.19766 9.34975L2.54152 10.0163ZM3.36155 9.86384V9.11384H3.32414L3.28692 9.11757L3.36155 9.86384ZM3.36156 9.86384V10.6138H3.39896L3.43619 10.6101L3.36156 9.86384ZM4.81842 9.56881L4.36344 8.97258L4.36343 8.97258L4.81842 9.56881ZM5.20287 8.64066L5.94619 8.54078V8.54078L5.20287 8.64066ZM4.38128 7.40182L4.96175 6.92689H4.96175L4.38128 7.40182ZM3.90914 6.71405L4.6236 6.48592H4.6236L3.90914 6.71405ZM3.94413 6.01243L3.25591 5.71434L3.25591 5.71434L3.94413 6.01243ZM4.48233 5.37509L5.01266 5.90542L5.01266 5.90542L4.48233 5.37509ZM5.37565 4.48177L4.84532 3.95144L5.37565 4.48177ZM6.01277 3.94373L5.71459 3.25555L5.71459 3.25555L6.01277 3.94373ZM6.71463 3.90872L6.94285 3.19429L6.94285 3.19429L6.71463 3.90872ZM7.4022 4.38076L7.87713 3.80029V3.80029L7.4022 4.38076ZM8.64044 5.20207L8.74054 4.45878V4.45878L8.64044 5.20207ZM9.56907 4.81742L8.9727 4.36261L9.56907 4.81742ZM9.86387 3.36131L10.6101 3.43593V3.43593L9.86387 3.36131ZM10.0162 2.5417L9.34959 2.19798L9.34959 2.19798L10.0162 2.5417ZM10.5374 2.07001L10.8131 2.7675L10.8131 2.7675L10.5374 2.07001ZM13.4627 2.07005L13.7385 1.37258L13.7385 1.37258L13.4627 2.07005ZM14.8824 3.28681C14.8617 3.07989 14.8429 2.88819 14.8161 2.7282C14.788 2.56083 14.744 2.37935 14.6503 2.19782L13.3172 2.8854C13.3109 2.87319 13.3214 2.88479 13.3368 2.97658C13.3534 3.07575 13.3672 3.20932 13.3899 3.43607L14.8824 3.28681ZM15.0274 4.36303C15.0533 4.39708 15.0249 4.38487 14.9881 4.18023C14.9526 3.98276 14.9247 3.70983 14.8824 3.28681L13.3899 3.43607C13.4297 3.83391 13.4634 4.17663 13.5118 4.44589C13.559 4.70798 13.637 5.01358 13.8348 5.27282L15.0274 4.36303ZM15.2595 4.45917C15.1704 4.47115 15.0818 4.43445 15.0274 4.36304L13.8348 5.27281C14.2161 5.77271 14.8363 6.02961 15.4594 5.94578L15.2595 4.45917ZM16.1229 3.80066C15.7939 4.06987 15.5812 4.24316 15.4165 4.35767C15.2457 4.47633 15.217 4.46488 15.2595 4.45917L15.4594 5.94578C15.7826 5.90231 16.0538 5.74139 16.2725 5.58941C16.4972 5.43328 16.7634 5.21478 17.0728 4.9616L16.1229 3.80066ZM17.0571 3.19476C16.8625 3.25691 16.7031 3.3541 16.5648 3.45258C16.4327 3.54672 16.2839 3.66898 16.1229 3.80066L17.0728 4.9616C17.2492 4.8173 17.3533 4.73258 17.4352 4.67423C17.511 4.62022 17.5266 4.61943 17.5135 4.62361L17.0571 3.19476ZM18.2854 3.25602C17.8969 3.08766 17.4604 3.06589 17.0571 3.19476L17.5135 4.62361C17.5712 4.6052 17.6335 4.60831 17.689 4.63236L18.2854 3.25602ZM19.1546 3.95187C19.0076 3.80483 18.8717 3.66836 18.7496 3.56154C18.6218 3.4498 18.4728 3.33723 18.2854 3.25602L17.689 4.63236C17.6764 4.6269 17.6919 4.62924 17.7619 4.69053C17.8376 4.75673 17.9328 4.8514 18.094 5.01253L19.1546 3.95187ZM20.0481 4.84534L19.1546 3.95187L18.094 5.01253L18.9874 5.906L20.0481 4.84534ZM20.744 5.71456C20.6627 5.52714 20.5502 5.37815 20.4384 5.25041C20.3316 5.12831 20.1951 4.99239 20.0481 4.84534L18.9874 5.906C19.1486 6.06713 19.2432 6.16235 19.3094 6.23804C19.3707 6.30809 19.3731 6.32355 19.3676 6.31094L20.744 5.71456ZM20.8052 6.94287C20.9341 6.53951 20.9123 6.10311 20.744 5.71457L19.3676 6.31094C19.3917 6.36644 19.3948 6.42879 19.3764 6.48642L20.8052 6.94287ZM20.1993 7.87703C20.331 7.71608 20.4532 7.56725 20.5474 7.43512C20.6459 7.2969 20.7431 7.13745 20.8052 6.94288L19.3764 6.48641C19.3805 6.47332 19.3797 6.48893 19.3257 6.56474C19.2674 6.64664 19.1827 6.7508 19.0384 6.92717L20.1993 7.87703ZM19.5408 8.74054C19.5351 8.78298 19.5236 8.75426 19.6423 8.58352C19.7568 8.41875 19.9301 8.20607 20.1993 7.87703L19.0384 6.92717C18.7852 7.23663 18.5667 7.50282 18.4105 7.72748C18.2585 7.94616 18.0976 8.21742 18.0542 8.54057L19.5408 8.74054ZM19.6369 8.97263C19.5655 8.91815 19.5288 8.82956 19.5408 8.74054L18.0542 8.54058C17.9703 9.16369 18.2272 9.78388 18.7271 10.1652L19.6369 8.97263ZM20.7132 9.11758C20.2901 9.07527 20.0172 9.04742 19.8197 9.01189C19.6151 8.97506 19.6029 8.94666 19.6369 8.97263L18.7271 10.1652C18.9863 10.363 19.292 10.441 19.5541 10.4882C19.8233 10.5366 20.166 10.5703 20.5639 10.6101L20.7132 9.11758ZM21.8022 9.34968C21.6207 9.25605 21.4392 9.21202 21.2718 9.18392C21.1118 9.15705 20.9201 9.13827 20.7132 9.11758L20.5639 10.6101C20.7907 10.6328 20.9242 10.6466 21.0234 10.6632C21.1152 10.6786 21.1268 10.6891 21.1146 10.6828L21.8022 9.34968ZM22.6274 10.2615C22.4717 9.86775 22.1785 9.54379 21.8022 9.34969L21.1146 10.6828C21.1684 10.7105 21.2102 10.7568 21.2325 10.8131L22.6274 10.2615ZM22.75 11.3682C22.75 11.1603 22.7504 10.9677 22.7396 10.8058C22.7283 10.6364 22.7025 10.4515 22.6274 10.2615L21.2325 10.8131C21.2274 10.8003 21.2367 10.8129 21.2429 10.9057C21.2496 11.0061 21.25 11.1404 21.25 11.3682H22.75ZM22.75 12.6319V11.3682H21.25V12.6319H22.75ZM22.6275 13.7383C22.7025 13.5484 22.7283 13.3635 22.7396 13.1942C22.7504 13.0324 22.75 12.8398 22.75 12.6319H21.25C21.25 12.8597 21.2496 12.9939 21.2429 13.0943C21.2367 13.1871 21.2274 13.1997 21.2325 13.1869L22.6275 13.7383ZM21.8021 14.6504C22.1785 14.4563 22.4718 14.1322 22.6275 13.7383L21.2325 13.1869C21.2103 13.2432 21.1684 13.2895 21.1146 13.3172L21.8021 14.6504ZM20.7133 14.8824C20.9201 14.8617 21.1118 14.8429 21.2718 14.8161C21.4391 14.788 21.6205 14.744 21.8021 14.6504L21.1146 13.3172C21.1268 13.3109 21.1152 13.3214 21.0234 13.3368C20.9243 13.3534 20.7907 13.3672 20.564 13.3899L20.7133 14.8824ZM20.7619 14.8759L20.7619 14.8759L20.5153 13.3963L20.5153 13.3963L20.7619 14.8759ZM19.6373 15.0273C19.6033 15.0533 19.6155 15.0249 19.8201 14.9881C20.0175 14.9525 20.2903 14.9247 20.7132 14.8824L20.564 13.3899C20.1663 13.4296 19.8236 13.4633 19.5545 13.5118C19.2925 13.5589 18.9869 13.6369 18.7278 13.8345L19.6373 15.0273ZM19.5412 15.2595C19.5292 15.1704 19.5659 15.0818 19.6373 15.0273L18.7278 13.8345C18.2276 14.2159 17.9706 14.8364 18.0546 15.4597L19.5412 15.2595ZM20.1994 16.1227C19.9303 15.7937 19.7571 15.5811 19.6426 15.4164C19.524 15.2458 19.5354 15.2171 19.5412 15.2595L18.0546 15.4597C18.0981 15.7828 18.259 16.0539 18.4109 16.2725C18.567 16.4971 18.7854 16.7632 19.0385 17.0725L20.1994 16.1227ZM20.8052 17.0565C20.743 16.862 20.6459 16.7026 20.5474 16.5644C20.4533 16.4323 20.3311 16.2835 20.1994 16.1227L19.0385 17.0725C19.1828 17.2488 19.2675 17.3529 19.3258 17.4348C19.3798 17.5106 19.3806 17.5262 19.3764 17.5131L20.8052 17.0565ZM20.7439 18.2852C20.9124 17.8965 20.9342 17.46 20.8052 17.0565L19.3764 17.5131C19.3948 17.5708 19.3917 17.6331 19.3676 17.6886L20.7439 18.2852ZM20.0483 19.1541C20.1952 19.0071 20.3317 18.8712 20.4384 18.7492C20.5502 18.6215 20.6627 18.4726 20.7439 18.2852L19.3676 17.6887C19.3731 17.676 19.3708 17.6915 19.3095 17.7615C19.2433 17.8372 19.1487 17.9324 18.9876 18.0934L20.0483 19.1541ZM19.1547 20.0477L20.0483 19.1541L18.9876 18.0934L18.094 18.987L19.1547 20.0477ZM18.2855 20.7435C18.4729 20.6623 18.6219 20.5498 18.7496 20.438C18.8717 20.3312 19.0076 20.1947 19.1547 20.0477L18.094 18.987C17.9329 19.1482 17.8377 19.2428 17.762 19.309C17.6919 19.3703 17.6765 19.3727 17.6891 19.3672L18.2855 20.7435ZM17.0571 20.8048C17.4605 20.9337 17.8969 20.9119 18.2855 20.7435L17.6891 19.3672C17.6336 19.3912 17.5712 19.3944 17.5136 19.3759L17.0571 20.8048ZM16.123 20.1989C16.2839 20.3306 16.4328 20.4528 16.5649 20.547C16.7031 20.6455 16.8626 20.7426 17.0571 20.8048L17.5136 19.3759C17.5267 19.3801 17.5111 19.3793 17.4353 19.3253C17.3534 19.267 17.2492 19.1823 17.0728 19.038L16.123 20.1989ZM16.1294 20.2041L16.1294 20.2041L17.0664 19.0328L17.0664 19.0328L16.1294 20.2041ZM15.2595 19.5404C15.2171 19.5347 15.2458 19.5232 15.4165 19.6419C15.5813 19.7564 15.794 19.9297 16.123 20.1989L17.0728 19.0379C16.7634 18.7848 16.4972 18.5663 16.2726 18.4101C16.0539 18.2582 15.7826 18.0972 15.4595 18.0538L15.2595 19.5404ZM15.0274 19.6365C15.0819 19.5651 15.1705 19.5284 15.2595 19.5404L15.4595 18.0538C14.8364 17.9699 14.2161 18.2268 13.8348 18.7267L15.0274 19.6365ZM14.8824 20.7129C14.9248 20.2899 14.9526 20.0169 14.9881 19.8194C15.025 19.6147 15.0534 19.6025 15.0274 19.6365L13.8348 18.7267C13.637 18.986 13.559 19.2916 13.5119 19.5537C13.4634 19.823 13.4297 20.1658 13.3899 20.5637L14.8824 20.7129ZM14.6502 21.8024C14.7439 21.6208 14.788 21.4392 14.8161 21.2718C14.843 21.1117 14.8617 20.92 14.8824 20.7129L13.3899 20.5637C13.3672 20.7905 13.3535 20.9242 13.3368 21.0234C13.3214 21.1152 13.3109 21.1269 13.3172 21.1146L14.6502 21.8024ZM13.7386 22.6273C14.1323 22.4717 14.4562 22.1786 14.6502 21.8024L13.3172 21.1146C13.2895 21.1684 13.2432 21.2102 13.187 21.2325L13.7386 22.6273ZM12.6316 22.75C12.8397 22.75 13.0323 22.7504 13.1942 22.7396C13.3636 22.7283 13.5486 22.7025 13.7386 22.6273L13.187 21.2325C13.1997 21.2274 13.1872 21.2367 13.0943 21.2429C12.9939 21.2496 12.8596 21.25 12.6316 21.25V22.75ZM11.3682 22.75H12.6316V21.25H11.3682V22.75ZM10.2615 22.6274C10.4515 22.7025 10.6364 22.7283 10.8058 22.7396C10.9677 22.7504 11.1603 22.75 11.3682 22.75V21.25C11.1404 21.25 11.0061 21.2496 10.9057 21.2429C10.8129 21.2367 10.8003 21.2274 10.8131 21.2325L10.2615 22.6274ZM9.34968 21.8022C9.54379 22.1785 9.86775 22.4717 10.2615 22.6274L10.8131 21.2325C10.7568 21.2102 10.7105 21.1684 10.6828 21.1146L9.34968 21.8022ZM9.11758 20.7132C9.13827 20.9201 9.15705 21.1118 9.18392 21.2718C9.21202 21.4392 9.25605 21.6207 9.34968 21.8022L10.6828 21.1146C10.6891 21.1268 10.6786 21.1152 10.6632 21.0234C10.6466 20.9242 10.6328 20.7907 10.6101 20.5639L9.11758 20.7132ZM8.97263 19.6369C8.94666 19.6029 8.97506 19.6151 9.01189 19.8197C9.04742 20.0172 9.07527 20.2901 9.11758 20.7132L10.6101 20.5639C10.5703 20.1661 10.5366 19.8233 10.4882 19.5541C10.441 19.2919 10.363 18.9863 10.1652 18.7271L8.97263 19.6369ZM8.74054 19.5408C8.82956 19.5288 8.91815 19.5655 8.97263 19.6369L10.1652 18.7271C9.78387 18.2272 9.1637 17.9704 8.5406 18.0542L8.74054 19.5408ZM7.877 20.1993C8.20605 19.9301 8.41875 19.7568 8.58352 19.6423C8.75426 19.5236 8.78298 19.5351 8.74054 19.5408L8.5406 18.0542C8.21744 18.0976 7.94617 18.2586 7.72748 18.4105C7.50281 18.5667 7.23661 18.7852 6.92715 19.0384L7.877 20.1993ZM7.90034 20.1794L7.90035 20.1794L6.9038 19.0583L6.90379 19.0583L7.90034 20.1794ZM6.9428 20.8053C7.13738 20.7431 7.29684 20.6459 7.43507 20.5474C7.5672 20.4533 7.71604 20.331 7.87699 20.1993L6.92714 19.0384C6.75076 19.1827 6.6466 19.2674 6.56469 19.3258C6.48888 19.3798 6.47327 19.3806 6.48636 19.3764L6.9428 20.8053ZM5.71454 20.744C6.10307 20.9124 6.53946 20.9341 6.9428 20.8053L6.48636 19.3764C6.42874 19.3948 6.3664 19.3917 6.3109 19.3677L5.71454 20.744ZM4.84528 20.0481C4.99233 20.1952 5.12826 20.3316 5.25037 20.4385C5.37811 20.5502 5.52711 20.6628 5.71454 20.744L6.3109 19.3677C6.32351 19.3731 6.30805 19.3708 6.23799 19.3095C6.1623 19.2433 6.06708 19.1486 5.90594 18.9875L4.84528 20.0481ZM3.95184 19.1547L4.84528 20.0481L5.90594 18.9875L5.0125 18.094L3.95184 19.1547ZM3.25596 18.2854C3.33717 18.4729 3.44975 18.6219 3.56149 18.7496C3.66831 18.8717 3.80479 19.0076 3.95184 19.1547L5.0125 18.094C4.85136 17.9329 4.75669 17.8377 4.69048 17.762C4.62919 17.6919 4.62685 17.6765 4.63232 17.6891L3.25596 18.2854ZM3.1947 17.0571C3.06585 17.4605 3.08761 17.8969 3.25596 18.2854L4.63232 17.6891C4.60827 17.6336 4.60516 17.5712 4.62356 17.5136L3.1947 17.0571ZM3.80064 16.123C3.66895 16.2839 3.54667 16.4328 3.45253 16.5649C3.35405 16.7031 3.25686 16.8626 3.1947 17.0571L4.62356 17.5136C4.61938 17.5267 4.62017 17.5111 4.67419 17.4353C4.73254 17.3534 4.81726 17.2492 4.96157 17.0728L3.80064 16.123ZM4.45917 15.2595C4.46488 15.217 4.47632 15.2457 4.35766 15.4165C4.24315 15.5812 4.06985 15.7939 3.80064 16.123L4.96157 17.0728C5.21476 16.7634 5.43327 16.4972 5.5894 16.2725C5.74138 16.0538 5.90231 15.7826 5.94578 15.4594L4.45917 15.2595ZM4.36303 15.0274C4.43444 15.0818 4.47114 15.1704 4.45917 15.2595L5.94578 15.4594C6.0296 14.8363 5.7727 14.2161 5.27282 13.8348L4.36303 15.0274ZM3.2868 14.8824C3.70983 14.9247 3.98275 14.9526 4.18022 14.9881C4.38486 15.0249 4.39707 15.0533 4.36303 15.0274L5.27282 13.8348C5.01358 13.637 4.70798 13.559 4.44589 13.5118C4.17663 13.4634 3.8339 13.4296 3.43606 13.3899L3.2868 14.8824ZM2.19782 14.6503C2.37936 14.744 2.56083 14.788 2.7282 14.8161C2.88819 14.8429 3.07988 14.8617 3.2868 14.8824L3.43606 13.3899C3.20931 13.3672 3.07575 13.3534 2.97658 13.3368C2.88479 13.3214 2.87319 13.3109 2.8854 13.3172L2.19782 14.6503ZM1.37258 13.7385C1.52828 14.1322 1.82148 14.4562 2.19782 14.6503L2.8854 13.3172C2.83164 13.2895 2.78975 13.2432 2.76751 13.1869L1.37258 13.7385ZM1.25 12.6318C1.25 12.8397 1.24961 13.0323 1.26042 13.1942C1.27173 13.3635 1.29748 13.5485 1.37258 13.7384L2.76751 13.1869C2.77257 13.1997 2.76329 13.1871 2.75709 13.0943C2.75039 12.9939 2.75 12.8597 2.75 12.6318H1.25ZM1.25 11.3683V12.6318H2.75V11.3683H1.25ZM1.37265 10.2614C1.29751 10.4514 1.27174 10.6364 1.26043 10.8058C1.24961 10.9677 1.25 11.1603 1.25 11.3683H2.75C2.75 11.1404 2.75039 11.0061 2.75709 10.9057C2.7633 10.8128 2.77258 10.8003 2.76752 10.813L1.37265 10.2614ZM2.19766 9.34975C1.82145 9.54384 1.52834 9.86772 1.37265 10.2614L2.76752 10.813C2.78976 10.7568 2.83164 10.7105 2.88538 10.6828L2.19766 9.34975ZM3.28692 9.11757C3.07995 9.13826 2.88821 9.15705 2.72817 9.18392C2.56076 9.21204 2.37924 9.25608 2.19767 9.34975L2.88538 10.6828C2.87316 10.6891 2.88477 10.6786 2.97658 10.6632C3.07578 10.6466 3.20937 10.6328 3.43618 10.6101L3.28692 9.11757ZM3.36155 9.11384H3.36155V10.6138H3.36155V9.11384ZM3.36156 9.11384H3.36155V10.6138H3.36156V9.11384ZM4.36343 8.97258C4.39748 8.9466 4.38527 8.97501 4.18059 9.01185C3.98306 9.0474 3.71006 9.07525 3.28693 9.11757L3.43619 10.6101C3.83414 10.5703 4.17695 10.5366 4.44628 10.4881C4.70844 10.4409 5.01412 10.3629 5.2734 10.165L4.36343 8.97258ZM4.45955 8.74054C4.47151 8.82954 4.43482 8.91811 4.36344 8.97258L5.2734 10.165C5.77308 9.78373 6.02989 9.16374 5.94619 8.54078L4.45955 8.74054ZM3.80081 7.87675C4.07011 8.20589 4.24347 8.41865 4.35801 8.58347C4.47671 8.75427 4.46525 8.78299 4.45955 8.74054L5.94619 8.54078C5.90275 8.21754 5.74179 7.94619 5.58977 7.72745C5.43359 7.50272 5.21502 7.23645 4.96175 6.92689L3.80081 7.87675ZM3.19467 6.94218C3.25683 7.13684 3.35405 7.29637 3.45257 7.43465C3.54674 7.56683 3.66906 7.71572 3.80081 7.87675L4.96175 6.92689C4.81738 6.75044 4.73261 6.64623 4.67424 6.56429C4.6202 6.48844 4.61942 6.47282 4.6236 6.48592L3.19467 6.94218ZM3.25591 5.71434C3.08768 6.10275 3.06593 6.53896 3.19467 6.94218L4.6236 6.48592C4.60521 6.42832 4.60831 6.36601 4.63235 6.31052L3.25591 5.71434ZM3.952 4.84476C3.8049 4.99186 3.66838 5.12784 3.56152 5.24999C3.44974 5.37778 3.33713 5.52684 3.25591 5.71434L4.63235 6.31052C4.62688 6.32314 4.62922 6.30767 4.69053 6.23759C4.75676 6.16187 4.85147 6.06662 5.01266 5.90542L3.952 4.84476ZM4.84532 3.95144L3.952 4.84476L5.01266 5.90542L5.90598 5.0121L4.84532 3.95144ZM4.84533 3.95144L4.84532 3.95144L5.90598 5.0121L5.90599 5.0121L4.84533 3.95144ZM5.71459 3.25555C5.52716 3.33676 5.37816 3.44934 5.25042 3.56109C5.12831 3.66791 4.99238 3.80438 4.84533 3.95144L5.90599 5.0121C6.06713 4.85095 6.16235 4.75628 6.23804 4.69007C6.3081 4.62878 6.32356 4.62644 6.31094 4.63191L5.71459 3.25555ZM6.94285 3.19429C6.5395 3.06544 6.10312 3.08721 5.71459 3.25555L6.31094 4.63191C6.36645 4.60786 6.42879 4.60475 6.48641 4.62316L6.94285 3.19429ZM7.87713 3.80029C7.71614 3.66858 7.56729 3.54629 7.43514 3.45214C7.29691 3.35366 7.13744 3.25645 6.94285 3.19429L6.48641 4.62316C6.4733 4.61897 6.48892 4.61976 6.56476 4.67379C6.64668 4.73216 6.75087 4.8169 6.92727 4.96123L7.87713 3.80029ZM8.74054 4.45878C8.78298 4.46449 8.75427 4.47593 8.58353 4.35726C8.41879 4.24276 8.20612 4.06947 7.87713 3.80029L6.92727 4.96123C7.23669 5.21439 7.50284 5.43286 7.72745 5.58898C7.94608 5.74093 8.21728 5.90185 8.54034 5.94536L8.74054 4.45878ZM8.9727 4.36261C8.91822 4.43406 8.82959 4.47077 8.74054 4.45878L8.54034 5.94536C9.16364 6.0293 9.78405 5.77232 10.1654 5.27222L8.9727 4.36261ZM9.11759 3.28668C9.0753 3.70958 9.04746 3.98243 9.01194 4.17985C8.97513 4.38444 8.94674 4.39665 8.9727 4.36261L10.1654 5.27222C10.3631 5.01303 10.4411 4.70751 10.4882 4.44549C10.5367 4.1763 10.5704 3.83367 10.6101 3.43593L9.11759 3.28668ZM9.34959 2.19798C9.256 2.37948 9.212 2.5609 9.18391 2.72823C9.15705 2.88818 9.13828 3.07981 9.11759 3.28668L10.6101 3.43593C10.6328 3.20925 10.6466 3.07573 10.6632 2.97658C10.6786 2.88481 10.6891 2.87321 10.6828 2.88543L9.34959 2.19798ZM10.2617 1.37252C9.86779 1.52822 9.54371 1.82151 9.34959 2.19798L10.6828 2.88543C10.7105 2.83164 10.7568 2.78975 10.8131 2.7675L10.2617 1.37252ZM11.3681 1.25C11.1602 1.25 10.9676 1.24961 10.8058 1.26042C10.6365 1.27172 10.4516 1.29746 10.2617 1.37252L10.8131 2.7675C10.8003 2.77255 10.8129 2.76328 10.9057 2.75708C11.0061 2.75039 11.1403 2.75 11.3681 2.75V1.25ZM12.6318 1.25H11.3681V2.75H12.6318V1.25ZM13.7385 1.37258C13.5485 1.29748 13.3635 1.27173 13.1942 1.26042C13.0323 1.24961 12.8397 1.25 12.6318 1.25V2.75C12.8597 2.75 12.9939 2.75039 13.0943 2.75709C13.1871 2.76329 13.1997 2.77257 13.1869 2.76751L13.7385 1.37258ZM14.6503 2.19782C14.4562 1.82148 14.1322 1.52828 13.7385 1.37258L13.1869 2.76751C13.2432 2.78975 13.2895 2.83164 13.3172 2.8854L14.6503 2.19782ZM15.25 12C15.25 13.7949 13.7949 15.25 12 15.25V16.75C14.6234 16.75 16.75 14.6234 16.75 12H15.25ZM12 8.75C13.7949 8.75 15.25 10.2051 15.25 12H16.75C16.75 9.37665 14.6234 7.25 12 7.25V8.75ZM8.75 12C8.75 10.2051 10.2051 8.75 12 8.75V7.25C9.37665 7.25 7.25 9.37665 7.25 12H8.75ZM12 15.25C10.2051 15.25 8.75 13.7949 8.75 12H7.25C7.25 14.6234 9.37665 16.75 12 16.75V15.25Z" fill="#262626"/>
</svg>
