<svg width="60" height="60" viewBox="0 0 60 60" fill="none" xmlns="http://www.w3.org/2000/svg">
<path d="M52.67 39.23C51.81 39.23 51.11 38.38 51.11 37.33C51.11 36.28 51.81 35.43 52.67 35.43H53.28C53.68 35.43 54 35.07 54 34.62V32.45C54 32 53.68 31.64 53.28 31.64H52.67C51.81 31.64 51.11 30.79 51.11 29.74C51.11 28.69 51.81 27.84 52.67 27.84H53.28C53.68 27.84 54 27.48 54 27.03V24.86C54 24.41 53.68 24.05 53.28 24.05H52.67C51.81 24.05 51.11 23.2 51.11 22.15C51.11 21.1 51.81 20.25 52.67 20.25H53.28C53.68 20.25 54 19.89 54 19.44V17.56C54 17.11 53.68 16.75 53.28 16.75H6.72C6.32 16.75 6 17.11 6 17.56V19.46C6 19.91 6.32 20.27 6.72 20.27H7.33C8.19 20.27 8.89 21.12 8.89 22.17C8.89 23.22 8.19 24.07 7.33 24.07H6.72C6.32 24.07 6 24.43 6 24.88V27.05C6 27.5 6.32 27.86 6.72 27.86H7.33C8.19 27.86 8.89 28.71 8.89 29.76C8.89 30.81 8.19 31.66 7.33 31.66H6.72C6.32 31.66 6 32.02 6 32.47V34.64C6 35.09 6.32 35.45 6.72 35.45H7.33C8.19 35.45 8.89 36.3 8.89 37.35C8.89 38.4 8.19 39.25 7.33 39.25H6.72C6.32 39.25 6 39.61 6 40.06V41.96C6 42.41 6.32 42.77 6.72 42.77H53.28C53.68 42.77 54 42.41 54 41.96V40.06C54 39.61 53.68 39.25 53.28 39.25H52.67V39.23Z" fill="#F5D97F"/>
<mask id="mask0_3251_29082" style="mask-type:alpha" maskUnits="userSpaceOnUse" x="6" y="16" width="48" height="27">
<path d="M52.67 39.23C51.81 39.23 51.11 38.38 51.11 37.33C51.11 36.28 51.81 35.43 52.67 35.43H53.28C53.68 35.43 54 35.07 54 34.62V32.45C54 32 53.68 31.64 53.28 31.64H52.67C51.81 31.64 51.11 30.79 51.11 29.74C51.11 28.69 51.81 27.84 52.67 27.84H53.28C53.68 27.84 54 27.48 54 27.03V24.86C54 24.41 53.68 24.05 53.28 24.05H52.67C51.81 24.05 51.11 23.2 51.11 22.15C51.11 21.1 51.81 20.25 52.67 20.25H53.28C53.68 20.25 54 19.89 54 19.44V17.56C54 17.11 53.68 16.75 53.28 16.75H6.72C6.32 16.75 6 17.11 6 17.56V19.46C6 19.91 6.32 20.27 6.72 20.27H7.33C8.19 20.27 8.89 21.12 8.89 22.17C8.89 23.22 8.19 24.07 7.33 24.07H6.72C6.32 24.07 6 24.43 6 24.88V27.05C6 27.5 6.32 27.86 6.72 27.86H7.33C8.19 27.86 8.89 28.71 8.89 29.76C8.89 30.81 8.19 31.66 7.33 31.66H6.72C6.32 31.66 6 32.02 6 32.47V34.64C6 35.09 6.32 35.45 6.72 35.45H7.33C8.19 35.45 8.89 36.3 8.89 37.35C8.89 38.4 8.19 39.25 7.33 39.25H6.72C6.32 39.25 6 39.61 6 40.06V41.96C6 42.41 6.32 42.77 6.72 42.77H53.28C53.68 42.77 54 42.41 54 41.96V40.06C54 39.61 53.68 39.25 53.28 39.25H52.67V39.23Z" fill="#F5D97F"/>
</mask>
<g mask="url(#mask0_3251_29082)">
<path d="M39.78 16.75V17.75" stroke="#EDA557" stroke-width="1.5" stroke-miterlimit="10" stroke-linecap="round"/>
<path d="M39.75 20.8L39.75 24.3" stroke="#EDA557" stroke-width="1.5" stroke-miterlimit="10" stroke-linecap="round"/>
<path d="M39.75 28L39.75 31.5" stroke="#EDA557" stroke-width="1.5" stroke-miterlimit="10" stroke-linecap="round"/>
<path d="M39.75 35.2L39.75 38.7" stroke="#EDA557" stroke-width="1.5" stroke-miterlimit="10" stroke-linecap="round"/>
<path d="M39.78 41.75V42.75" stroke="#EDA557" stroke-width="1.5" stroke-miterlimit="10" stroke-linecap="round"/>
</g>
</svg>
