<svg width="42" height="42" viewBox="0 0 42 42" fill="none" xmlns="http://www.w3.org/2000/svg">
<g filter="url(#filter0_d_5995_47356)">
<rect x="5" y="5" width="32" height="32" rx="16" fill="white"/>
<path d="M12 18.8541C12 17.8301 12.8301 17 13.8541 17C14.5564 17 15.1984 16.6032 15.5125 15.9751L16.3333 14.3333C16.4433 14.1134 16.4983 14.0035 16.5606 13.9078C16.8859 13.4088 17.4167 13.0808 18.0085 13.013C18.1219 13 18.2448 13 18.4907 13H23.5093C23.7552 13 23.8781 13 23.9915 13.013C24.5833 13.0808 25.1141 13.4088 25.4394 13.9078C25.5017 14.0035 25.5567 14.1134 25.6667 14.3333L26.4875 15.9751C26.8016 16.6032 27.4436 17 28.1459 17C29.1699 17 30 17.8301 30 18.8541V23.8571C30 25.8619 30 26.8643 29.5402 27.5961C29.3004 27.9777 28.9777 28.3004 28.5961 28.5402C27.8643 29 26.8619 29 24.8571 29H17.1429C15.1381 29 14.1357 29 13.4039 28.5402C13.0223 28.3004 12.6996 27.9777 12.4598 27.5961C12 26.8643 12 25.8619 12 23.8571V18.8541Z" fill="#9E7CFE" stroke="#9E7CFE" stroke-width="1.5"/>
<circle cx="21" cy="22" r="3.25" fill="white" stroke="white" stroke-width="1.5"/>
</g>
<defs>
<filter id="filter0_d_5995_47356" x="0" y="0" width="42" height="42" filterUnits="userSpaceOnUse" color-interpolation-filters="sRGB">
<feFlood flood-opacity="0" result="BackgroundImageFix"/>
<feColorMatrix in="SourceAlpha" type="matrix" values="0 0 0 0 0 0 0 0 0 0 0 0 0 0 0 0 0 0 127 0" result="hardAlpha"/>
<feOffset/>
<feGaussianBlur stdDeviation="2.5"/>
<feComposite in2="hardAlpha" operator="out"/>
<feColorMatrix type="matrix" values="0 0 0 0 0 0 0 0 0 0 0 0 0 0 0 0 0 0 0.1 0"/>
<feBlend mode="normal" in2="BackgroundImageFix" result="effect1_dropShadow_5995_47356"/>
<feBlend mode="normal" in="SourceGraphic" in2="effect1_dropShadow_5995_47356" result="shape"/>
</filter>
</defs>
</svg>
