<svg width="38" height="38" viewBox="0 0 38 38" fill="none" xmlns="http://www.w3.org/2000/svg">
<g filter="url(#filter0_d_2036_15262)">
<rect x="5" y="5" width="28" height="28" rx="14" fill="white"/>
<path d="M11.5 17.2118C11.5 16.3585 12.1918 15.6667 13.0451 15.6667C13.6303 15.6667 14.1653 15.3361 14.4271 14.8126L15.1111 13.4445C15.1138 13.4391 15.1151 13.4365 15.1164 13.434C15.4552 12.7609 16.1436 12.3355 16.8972 12.3334C16.9 12.3334 16.9029 12.3334 16.9089 12.3334H21.0911C21.0971 12.3334 21.1 12.3334 21.1028 12.3334C21.8564 12.3355 22.5448 12.7609 22.8836 13.434C22.8849 13.4365 22.8862 13.4391 22.8889 13.4445L23.5729 14.8126C23.8347 15.3361 24.3697 15.6667 24.9549 15.6667C25.8082 15.6667 26.5 16.3585 26.5 17.2118V21.381C26.5 22.5779 26.5 23.1764 26.3316 23.6575C26.0301 24.5193 25.3526 25.1968 24.4908 25.4984C24.0097 25.6667 23.4112 25.6667 22.2143 25.6667H15.7857C14.5888 25.6667 13.9903 25.6667 13.5092 25.4984C12.6474 25.1968 11.9699 24.5193 11.6683 23.6575C11.5 23.1764 11.5 22.5779 11.5 21.381V17.2118Z" fill="#9E7CFE" stroke="#9E7CFE" stroke-width="1.5"/>
<path d="M21.5837 19.8333C21.5837 21.2601 20.4271 22.4167 19.0003 22.4167C17.5736 22.4167 16.417 21.2601 16.417 19.8333C16.417 18.4066 17.5736 17.25 19.0003 17.25C20.4271 17.25 21.5837 18.4066 21.5837 19.8333Z" fill="white" stroke="white" stroke-width="1.5"/>
</g>
<defs>
<filter id="filter0_d_2036_15262" x="0" y="0" width="38" height="38" filterUnits="userSpaceOnUse" color-interpolation-filters="sRGB">
<feFlood flood-opacity="0" result="BackgroundImageFix"/>
<feColorMatrix in="SourceAlpha" type="matrix" values="0 0 0 0 0 0 0 0 0 0 0 0 0 0 0 0 0 0 127 0" result="hardAlpha"/>
<feOffset/>
<feGaussianBlur stdDeviation="2.5"/>
<feComposite in2="hardAlpha" operator="out"/>
<feColorMatrix type="matrix" values="0 0 0 0 0 0 0 0 0 0 0 0 0 0 0 0 0 0 0.1 0"/>
<feBlend mode="normal" in2="BackgroundImageFix" result="effect1_dropShadow_2036_15262"/>
<feBlend mode="normal" in="SourceGraphic" in2="effect1_dropShadow_2036_15262" result="shape"/>
</filter>
</defs>
</svg>
