<svg width="60" height="60" viewBox="0 0 60 60" fill="none" xmlns="http://www.w3.org/2000/svg">
<g clip-path="url(#clip0_3251_29085)">
<path d="M33.61 46.93C33.61 44.881 31.9512 43.22 29.905 43.22C27.8587 43.22 26.2 44.881 26.2 46.93V48.78C26.2 50.829 27.8587 52.49 29.905 52.49C31.9512 52.49 33.61 50.829 33.61 48.78V46.93Z" fill="#FF8E85"/>
<path d="M29.8999 46V49.71" stroke="#F7726F" stroke-width="1.2" stroke-miterlimit="10" stroke-linecap="round"/>
<path d="M21.1 10.78C21.1 10.78 9.04997 14.49 5.33997 30.24C2.14997 43.8 11.74 44.01 14.61 42.29C19.24 39.51 20.17 31.17 20.17 22.83C20.17 14.49 21.1 10.78 21.1 10.78V10.78Z" fill="#B79372"/>
<path d="M38.99 10.78C38.99 10.78 51.04 14.49 54.75 30.24C57.94 43.8 48.35 44.01 45.48 42.29C40.85 39.51 39.92 31.17 39.92 22.83C39.92 14.49 38.99 10.78 38.99 10.78V10.78Z" fill="#B79372"/>
<path d="M46.1199 23.76C46.1199 15.05 38.8599 8 29.8999 8C20.9399 8 13.6799 15.05 13.6799 23.76C13.6799 27.7 15.1799 31.3 17.6399 34.06C17.5499 34.63 17.4899 35.21 17.4899 35.81C17.4899 42.46 23.0399 47.86 29.8899 47.86C36.7399 47.86 42.2899 42.47 42.2899 35.81C42.2899 35.21 42.2299 34.63 42.1399 34.06C44.5999 31.3 46.0999 27.7 46.0999 23.76H46.1199Z" fill="#F2EEE6"/>
<path d="M13.6799 23.76C13.6799 27.7 15.1799 31.3 17.6399 34.06C17.5499 34.63 17.4899 35.21 17.4899 35.81C17.4899 36.26 17.5199 36.7 17.5699 37.13C20.1899 37.97 23.1699 37.43 25.7199 34.88C30.9499 29.65 27.7499 14.21 26.3099 8.39999C19.0799 9.97999 13.6699 16.25 13.6699 23.76H13.6799Z" fill="#B79372" stroke="#B79372" stroke-width="0.1" stroke-miterlimit="10"/>
<path d="M22.49 31.17C23.5117 31.17 24.34 30.3417 24.34 29.32C24.34 28.2983 23.5117 27.47 22.49 27.47C21.4683 27.47 20.64 28.2983 20.64 29.32C20.64 30.3417 21.4683 31.17 22.49 31.17Z" fill="#474747"/>
<path d="M37.32 31.17C38.3417 31.17 39.17 30.3417 39.17 29.32C39.17 28.2983 38.3417 27.47 37.32 27.47C36.2982 27.47 35.47 28.2983 35.47 29.32C35.47 30.3417 36.2982 31.17 37.32 31.17Z" fill="#474747"/>
<path d="M32.22 45.26C32.22 45.87 31.18 46.93 29.9 46.93C28.62 46.93 27.58 45.88 27.58 45.26C27.58 44.64 28.62 44.15 29.9 44.15C31.18 44.15 32.22 44.65 32.22 45.26Z" fill="#474747"/>
</g>
<defs>
<clipPath id="clip0_3251_29085">
<rect width="50.69" height="44.49" fill="white" transform="translate(4.69995 8)"/>
</clipPath>
</defs>
</svg>
