<svg width="60" height="60" viewBox="0 0 60 60" fill="none" xmlns="http://www.w3.org/2000/svg">
<g clip-path="url(#clip0_3251_29088)">
<path d="M21 43.5C21 41.567 19.433 40 17.5 40C15.567 40 14 41.567 14 43.5V45.5C14 47.433 15.567 49 17.5 49C19.433 49 21 47.433 21 45.5V43.5Z" fill="#353535"/>
<path d="M46 43.5C46 41.567 44.433 40 42.5 40C40.567 40 39 41.567 39 43.5V45.5C39 47.433 40.567 49 42.5 49C44.433 49 46 47.433 46 45.5V43.5Z" fill="#353535"/>
<path d="M49.07 25.32C49.16 24.68 49.19 24.03 49.16 23.36V23.24C48.98 19.83 47.59 16.55 45.06 14.26C42.8 12.21 39.9 11 36.95 11H23.04C19.55 11 16.15 12.69 13.77 15.46C11.95 17.58 11 20.31 10.85 23.09V23.36C10.8 24.03 10.84 24.68 10.92 25.32C9.42999 26.76 8.48999 28.83 8.48999 31.12V36.09C8.48999 40.46 11.86 44 16.01 44H43.98C48.13 44 51.5 40.46 51.5 36.09V31.12C51.5 28.82 50.56 26.76 49.07 25.32Z" fill="#3092E3"/>
<path d="M18.5 37C19.8807 37 21 35.8807 21 34.5C21 33.1193 19.8807 32 18.5 32C17.1193 32 16 33.1193 16 34.5C16 35.8807 17.1193 37 18.5 37Z" fill="#FFB463"/>
<path d="M41.5 37C42.8807 37 44 35.8807 44 34.5C44 33.1193 42.8807 32 41.5 32C40.1193 32 39 33.1193 39 34.5C39 35.8807 40.1193 37 41.5 37Z" fill="#FFB463"/>
<path d="M45 25.48H15C15 19.69 16 15 25.48 15H34.52C44 15 45 19.69 45 25.48Z" fill="#CEE1ED"/>
</g>
<defs>
<clipPath id="clip0_3251_29088">
<rect width="43" height="38" fill="white" transform="translate(8.5 11)"/>
</clipPath>
</defs>
</svg>
