<svg width="28" height="28" viewBox="0 0 28 28" fill="none" xmlns="http://www.w3.org/2000/svg">
<path d="M5.8335 14.8861C5.8335 13.3021 5.8335 12.5101 6.1537 11.8139C6.47391 11.1177 7.07526 10.6022 8.27796 9.57134L9.44462 8.57134C11.6185 6.70803 12.7054 5.77637 14.0002 5.77637C15.2949 5.77637 16.3818 6.70803 18.5557 8.57134L19.7224 9.57134C20.9251 10.6022 21.5264 11.1177 21.8466 11.8139C22.1668 12.5101 22.1668 13.3021 22.1668 14.8861V19.8333C22.1668 22.0332 22.1668 23.1331 21.4834 23.8165C20.8 24.4999 19.7001 24.4999 17.5002 24.4999H10.5002C8.30028 24.4999 7.20033 24.4999 6.51691 23.8165C5.8335 23.1331 5.8335 22.0332 5.8335 19.8333V14.8861Z" stroke="#262626" stroke-width="1.75"/>
<path d="M16.9168 24.5V18.6667C16.9168 18.0223 16.3945 17.5 15.7502 17.5H12.2502C11.6058 17.5 11.0835 18.0223 11.0835 18.6667V24.5" stroke="#262626" stroke-width="1.75" stroke-linecap="round" stroke-linejoin="round"/>
</svg>
