<svg width="28" height="29" viewBox="0 0 28 29" fill="none" xmlns="http://www.w3.org/2000/svg">
<path d="M5.83337 15.3861C5.83337 13.8021 5.83337 13.0101 6.15358 12.3139C6.47378 11.6177 7.07513 11.1022 8.27783 10.0713L9.4445 9.07134C11.6184 7.20803 12.7053 6.27637 14 6.27637C15.2948 6.27637 16.3817 7.20803 18.5556 9.07134L19.7223 10.0713C20.925 11.1022 21.5263 11.6177 21.8465 12.3139C22.1667 13.0101 22.1667 13.8021 22.1667 15.3861V20.3333C22.1667 22.5332 22.1667 23.6331 21.4833 24.3165C20.7999 24.9999 19.6999 24.9999 17.5 24.9999H10.5C8.30015 24.9999 7.20021 24.9999 6.51679 24.3165C5.83337 23.6331 5.83337 22.5332 5.83337 20.3333V15.3861Z" stroke="#262626" stroke-width="1.75"/>
<path d="M16.9167 25V19.1667C16.9167 18.5223 16.3944 18 15.75 18H12.25C11.6057 18 11.0834 18.5223 11.0834 19.1667V25" stroke="#262626" stroke-width="1.75" stroke-linecap="round" stroke-linejoin="round"/>
</svg>
