<svg width="28" height="28" viewBox="0 0 28 28" fill="none" xmlns="http://www.w3.org/2000/svg">
<path d="M22.5469 6.74075C23.3334 7.9178 23.3334 9.55634 23.3334 12.8334C23.3334 16.1105 23.3334 17.749 22.5469 18.9261C22.2065 19.4356 21.769 19.8731 21.2594 20.2136C20.2312 20.9007 18.8507 20.9875 16.3334 20.9985V21.0001L15.0436 23.5798C14.6136 24.4396 13.3865 24.4396 12.9566 23.5798L11.6667 21.0001V20.9985C9.14943 20.9875 7.769 20.9007 6.74075 20.2136C6.2312 19.8731 5.7937 19.4356 5.45322 18.9261C4.66675 17.749 4.66675 16.1105 4.66675 12.8334C4.66675 9.55634 4.66675 7.9178 5.45322 6.74075C5.7937 6.2312 6.2312 5.7937 6.74075 5.45322C7.9178 4.66675 9.55634 4.66675 12.8334 4.66675H15.1667C18.4438 4.66675 20.0824 4.66675 21.2594 5.45322C21.769 5.7937 22.2065 6.2312 22.5469 6.74075Z" stroke="#262626" stroke-width="1.75" stroke-linecap="round" stroke-linejoin="round"/>
<path d="M10.5 10.5L17.5 10.5" stroke="#262626" stroke-width="1.75" stroke-linecap="round" stroke-linejoin="round"/>
<path d="M10.5 15.1667H14" stroke="#262626" stroke-width="1.75" stroke-linecap="round" stroke-linejoin="round"/>
</svg>
