<svg width="28" height="29" viewBox="0 0 28 29" fill="none" xmlns="http://www.w3.org/2000/svg">
<path d="M22.5468 7.24075C23.3333 8.4178 23.3333 10.0563 23.3333 13.3334C23.3333 16.6105 23.3333 18.249 22.5468 19.4261C22.2063 19.9356 21.7688 20.3731 21.2593 20.7136C20.231 21.4007 18.8506 21.4875 16.3333 21.4985V21.5001L15.0435 24.0798C14.6135 24.9396 13.3864 24.9396 12.9565 24.0798L11.6666 21.5001V21.4985C9.14931 21.4875 7.76887 21.4007 6.74063 20.7136C6.23108 20.3731 5.79357 19.9356 5.4531 19.4261C4.66663 18.249 4.66663 16.6105 4.66663 13.3334C4.66663 10.0563 4.66663 8.4178 5.4531 7.24075C5.79357 6.7312 6.23108 6.2937 6.74063 5.95322C7.91767 5.16675 9.55621 5.16675 12.8333 5.16675H15.1666C18.4437 5.16675 20.0822 5.16675 21.2593 5.95322C21.7688 6.2937 22.2063 6.7312 22.5468 7.24075Z" stroke="#9E7CFE" stroke-width="1.75" stroke-linecap="round" stroke-linejoin="round"/>
<path d="M10.5 11L17.5 11" stroke="#9E7CFE" stroke-width="1.75" stroke-linecap="round" stroke-linejoin="round"/>
<path d="M10.5 15.6667H14" stroke="#9E7CFE" stroke-width="1.75" stroke-linecap="round" stroke-linejoin="round"/>
</svg>
