<svg width="60" height="60" viewBox="0 0 60 60" fill="none" xmlns="http://www.w3.org/2000/svg">
<g clip-path="url(#clip0_3251_29089)">
<path d="M24.9999 22.37C24.9999 22.37 22.6299 16.25 20.0999 15.09C17.5699 13.93 14.4599 15.09 13.1899 17.41C11.9199 19.73 9.96989 24.37 15.0299 27.84C20.0899 31.32 24.9999 28.01 24.9999 25.69V22.37Z" fill="#3A3634"/>
<path d="M34.95 22.37C34.95 22.37 37.32 16.25 39.85 15.09C42.38 13.93 45.49 15.09 46.76 17.41C48.03 19.73 49.98 24.37 44.92 27.84C39.86 31.31 34.95 28.01 34.95 25.69V22.37Z" fill="#3A3634"/>
<path d="M33.9899 54.42H25.9599C16.1999 54.42 8.37991 46.66 8.69991 37.29C9.01991 28.35 17.7999 21.26 27.1099 21.26H33.9899C43.2999 21.26 50.9299 28.35 51.2399 37.29C51.5699 46.66 43.7499 54.42 33.9899 54.42Z" fill="#FFDB66"/>
<path d="M21.9599 40.61C22.8767 40.61 23.6199 39.8668 23.6199 38.95C23.6199 38.0332 22.8767 37.29 21.9599 37.29C21.0431 37.29 20.2999 38.0332 20.2999 38.95C20.2999 39.8668 21.0431 40.61 21.9599 40.61Z" fill="#474747"/>
<path d="M37.4399 40.61C38.3567 40.61 39.0999 39.8668 39.0999 38.95C39.0999 38.0332 38.3567 37.29 37.4399 37.29C36.5231 37.29 35.7799 38.0332 35.7799 38.95C35.7799 39.8668 36.5231 40.61 37.4399 40.61Z" fill="#474747"/>
<path d="M33.5199 42.47C32.6399 42 31.3499 41.7 29.8899 41.7C27.8799 41.7 26.1599 42.27 25.4399 43.08C24.8299 43.64 24.4299 44.44 24.4299 45.34C24.4299 47.04 25.7999 48.41 27.4999 48.41C28.5099 48.41 29.3999 47.92 29.9599 47.17C30.5199 47.92 31.4099 48.41 32.4199 48.41C34.1199 48.41 35.4899 47.04 35.4899 45.34C35.4899 44.03 34.6699 42.92 33.5199 42.48V42.47Z" fill="white"/>
<path d="M30.3299 43.35L31.0299 42.77C31.6499 42.25 31.2899 41.24 30.4799 41.24H29.0699C28.2599 41.24 27.8899 42.25 28.5199 42.77L29.2199 43.35C29.5399 43.62 30.0099 43.62 30.3299 43.35V43.35Z" fill="#474747"/>
<path d="M16.3998 43.59C16.8582 43.59 17.2298 43.2184 17.2298 42.76C17.2298 42.3016 16.8582 41.93 16.3998 41.93C15.9414 41.93 15.5698 42.3016 15.5698 42.76C15.5698 43.2184 15.9414 43.59 16.3998 43.59Z" fill="#474747"/>
<path d="M12.9499 42.96C13.4083 42.96 13.7799 42.5884 13.7799 42.13C13.7799 41.6716 13.4083 41.3 12.9499 41.3C12.4915 41.3 12.1199 41.6716 12.1199 42.13C12.1199 42.5884 12.4915 42.96 12.9499 42.96Z" fill="#474747"/>
<path d="M14.5799 46.5C15.0383 46.5 15.4099 46.1284 15.4099 45.67C15.4099 45.2116 15.0383 44.84 14.5799 44.84C14.1215 44.84 13.7499 45.2116 13.7499 45.67C13.7499 46.1284 14.1215 46.5 14.5799 46.5Z" fill="#474747"/>
<path d="M43.5398 43.59C43.9982 43.59 44.3698 43.2184 44.3698 42.76C44.3698 42.3016 43.9982 41.93 43.5398 41.93C43.0814 41.93 42.7098 42.3016 42.7098 42.76C42.7098 43.2184 43.0814 43.59 43.5398 43.59Z" fill="#474747"/>
<path d="M46.9998 42.96C47.4582 42.96 47.8298 42.5884 47.8298 42.13C47.8298 41.6716 47.4582 41.3 46.9998 41.3C46.5414 41.3 46.1698 41.6716 46.1698 42.13C46.1698 42.5884 46.5414 42.96 46.9998 42.96Z" fill="#474747"/>
<path d="M45.3698 46.5C45.8282 46.5 46.1998 46.1284 46.1998 45.67C46.1998 45.2116 45.8282 44.84 45.3698 44.84C44.9114 44.84 44.5398 45.2116 44.5398 45.67C44.5398 46.1284 44.9114 46.5 45.3698 46.5Z" fill="#474747"/>
<path d="M28.5798 25.17H32.1698L28.5798 28.68L32.1698 28.61" stroke="#474747" stroke-width="1.3" stroke-linecap="round" stroke-linejoin="round"/>
<path d="M32.9198 23.51C33.3782 23.51 33.7498 23.1384 33.7498 22.68C33.7498 22.2216 33.3782 21.85 32.9198 21.85C32.4614 21.85 32.0898 22.2216 32.0898 22.68C32.0898 23.1384 32.4614 23.51 32.9198 23.51Z" fill="#474747"/>
<path d="M34.7798 26.88C35.2382 26.88 35.6098 26.5084 35.6098 26.05C35.6098 25.5916 35.2382 25.22 34.7798 25.22C34.3214 25.22 33.9498 25.5916 33.9498 26.05C33.9498 26.5084 34.3214 26.88 34.7798 26.88Z" fill="#474747"/>
<path d="M26.1899 28.01C26.6483 28.01 27.0199 27.6384 27.0199 27.18C27.0199 26.7216 26.6483 26.35 26.1899 26.35C25.7315 26.35 25.3599 26.7216 25.3599 27.18C25.3599 27.6384 25.7315 28.01 26.1899 28.01Z" fill="#474747"/>
<path d="M27.7599 7.55C28.0099 6.98 28.5899 6.53 29.2299 6.35C30.9199 5.86 32.5799 7.24 32.1199 8.83C31.7999 9.94 30.6599 11 29.4299 11.25C29.4299 12.52 29.4699 12.86 29.4699 12.86" stroke="#E53939" stroke-width="1.5" stroke-linecap="round" stroke-linejoin="round"/>
<path d="M29.5999 16.48C30.2129 16.48 30.7099 15.983 30.7099 15.37C30.7099 14.757 30.2129 14.26 29.5999 14.26C28.9868 14.26 28.4899 14.757 28.4899 15.37C28.4899 15.983 28.9868 16.48 29.5999 16.48Z" fill="#E53939"/>
</g>
<defs>
<clipPath id="clip0_3251_29089">
<rect width="42.55" height="48.92" fill="white" transform="translate(8.69995 5.5)"/>
</clipPath>
</defs>
</svg>
