<svg width="60" height="60" viewBox="0 0 60 60" fill="none" xmlns="http://www.w3.org/2000/svg">
<g clip-path="url(#clip0_3251_29074)">
<path d="M52.09 12H7.91C6.30285 12 5 13.3029 5 14.91V44.28C5 45.8871 6.30285 47.19 7.91 47.19H52.09C53.6971 47.19 55 45.8871 55 44.28V14.91C55 13.3029 53.6971 12 52.09 12Z" fill="#3A3634"/>
<path d="M25.17 26.56L25.23 17.78C25.23 16.64 24.29 15.71 23.11 15.71L10.93 15.62C9.74999 15.62 8.78999 16.53 8.77999 17.66L8.60999 41.32C8.60999 42.46 9.54999 43.39 10.73 43.39L19.9 43.45L25.04 43.49L34.21 43.55C35.39 43.55 36.35 42.64 36.36 41.51L36.44 30.75C36.44 29.61 35.5 28.68 34.32 28.68L27.28 28.63C26.1 28.63 25.15 27.69 25.16 26.56H25.17Z" fill="#FFEBCC"/>
<path d="M34.2199 18.99C34.9999 18.6 35.5399 17.8 35.5399 16.87C35.5399 15.55 34.4699 14.48 33.1499 14.48C31.8299 14.48 30.7599 15.55 30.7599 16.87C30.7599 17.25 30.8599 17.6 31.0099 17.92C30.6899 17.76 30.3399 17.67 29.9599 17.67C28.6399 17.67 27.5699 18.74 27.5699 20.06C27.5699 20.99 28.1099 21.79 28.8899 22.18C28.1099 22.57 27.5699 23.37 27.5699 24.3C27.5699 25.62 28.6399 26.69 29.9599 26.69C31.2799 26.69 32.3499 25.62 32.3499 24.3C32.3499 23.92 32.2499 23.57 32.0999 23.25C32.4199 23.41 32.7699 23.5 33.1499 23.5C34.4699 23.5 35.5399 22.43 35.5399 21.11C35.5399 20.18 34.9999 19.38 34.2199 18.99V18.99Z" fill="#E03434"/>
<path d="M16.03 21.48L15.49 22.13C15.43 22.19 15.38 22.26 15.36 22.34C15.32 22.42 15.3 22.5 15.3 22.59C15.3 22.68 15.32 22.76 15.36 22.84C15.39 22.92 15.43 22.99 15.49 23.05C15.61 23.16 15.78 23.25 15.95 23.24L16.12 23.22C16.23 23.19 16.33 23.13 16.41 23.05L16.95 22.4C17.01 22.34 17.06 22.27 17.08 22.19C17.12 22.11 17.14 22.03 17.14 21.94C17.14 21.85 17.12 21.77 17.08 21.69C17.05 21.61 17.01 21.54 16.95 21.48C16.83 21.37 16.66 21.28 16.49 21.29L16.32 21.31C16.21 21.34 16.11 21.4 16.03 21.48Z" fill="#FF9522"/>
<path d="M12.4 27.92C12.32 28.09 12.24 28.27 12.21 28.46C12.18 28.65 12.15 28.84 12.18 29.04C12.18 29.13 12.2 29.21 12.24 29.29C12.27 29.37 12.31 29.44 12.37 29.5C12.43 29.56 12.5 29.61 12.58 29.63C12.66 29.67 12.74 29.69 12.83 29.69C13 29.69 13.17 29.63 13.29 29.5L13.39 29.37C13.45 29.27 13.48 29.16 13.48 29.04C13.47 28.92 13.47 28.8 13.48 28.68L13.46 28.85C13.48 28.73 13.51 28.6 13.56 28.49L13.49 28.65C13.49 28.65 13.51 28.61 13.52 28.59C13.57 28.52 13.59 28.43 13.6 28.35C13.62 28.26 13.62 28.18 13.59 28.09C13.57 28.01 13.53 27.93 13.47 27.87C13.42 27.8 13.36 27.74 13.29 27.7C13.14 27.62 12.96 27.58 12.79 27.63C12.64 27.68 12.47 27.78 12.4 27.93V27.92Z" fill="#FF9522"/>
<path d="M18.87 32.84V33.5C18.87 33.59 18.89 33.67 18.93 33.75C18.96 33.83 19 33.9 19.06 33.96C19.12 34.02 19.19 34.07 19.27 34.09C19.35 34.13 19.43 34.15 19.52 34.15L19.69 34.13C19.8 34.1 19.9 34.04 19.98 33.96C20.1 33.83 20.17 33.68 20.17 33.5V32.84C20.17 32.75 20.15 32.67 20.11 32.59C20.08 32.51 20.04 32.44 19.98 32.38C19.92 32.32 19.85 32.27 19.77 32.25C19.69 32.21 19.61 32.19 19.52 32.19L19.35 32.21C19.24 32.24 19.14 32.3 19.06 32.38C18.94 32.51 18.87 32.66 18.87 32.84Z" fill="#FF9522"/>
<path d="M28.92 34.87L28.65 35.26C28.6 35.33 28.58 35.42 28.57 35.5C28.55 35.59 28.55 35.67 28.58 35.76C28.6 35.84 28.64 35.92 28.7 35.98C28.75 36.05 28.81 36.11 28.88 36.15L29.04 36.22C29.16 36.25 29.27 36.25 29.39 36.22L29.55 36.15C29.65 36.09 29.73 36.01 29.78 35.92L30.05 35.53C30.1 35.46 30.12 35.37 30.13 35.29C30.15 35.2 30.15 35.12 30.12 35.03C30.1 34.95 30.06 34.87 30 34.81C29.95 34.74 29.89 34.68 29.82 34.64L29.66 34.57C29.54 34.54 29.43 34.54 29.31 34.57L29.15 34.64C29.05 34.7 28.97 34.78 28.92 34.87Z" fill="#FF9522"/>
<path d="M14.83 39.5C14.83 39.5 14.82 39.55 14.81 39.57C14.8 39.65 14.78 39.73 14.78 39.81C14.78 39.83 14.78 39.86 14.78 39.88C14.78 39.96 14.8 40.04 14.81 40.12C14.81 40.14 14.82 40.17 14.83 40.19C14.86 40.26 14.89 40.34 14.92 40.41C14.93 40.43 14.94 40.45 14.96 40.47C15 40.53 15.05 40.6 15.1 40.66C15.16 40.72 15.23 40.77 15.31 40.79C15.39 40.83 15.47 40.85 15.56 40.85C15.65 40.85 15.73 40.83 15.81 40.79C15.89 40.76 15.96 40.72 16.02 40.66L16.12 40.53C16.18 40.43 16.21 40.32 16.21 40.2L16.19 40.03C16.16 39.92 16.1 39.82 16.02 39.74L15.99 39.71L16.09 39.84C16.09 39.84 16.04 39.76 16.02 39.72L16.09 39.88C16.09 39.88 16.06 39.78 16.05 39.73L16.07 39.9C16.07 39.9 16.07 39.8 16.07 39.75L16.05 39.92C16.05 39.92 16.05 39.87 16.07 39.84C16.1 39.75 16.1 39.67 16.08 39.58C16.08 39.49 16.05 39.41 16 39.34C15.96 39.26 15.9 39.2 15.83 39.16C15.77 39.1 15.69 39.06 15.61 39.04L15.44 39.02C15.32 39.02 15.21 39.05 15.11 39.11L14.98 39.21C14.9 39.29 14.84 39.39 14.81 39.5H14.83Z" fill="#FF9522"/>
<path d="M25.6001 41.09L26.1201 40.96C26.2001 40.94 26.2801 40.9 26.3401 40.84C26.4101 40.79 26.4701 40.73 26.5101 40.66C26.5601 40.59 26.5801 40.5 26.5901 40.42C26.6101 40.33 26.6101 40.25 26.5801 40.16L26.5101 40C26.4501 39.9 26.3701 39.82 26.2801 39.77L26.1201 39.7C26.0001 39.67 25.8901 39.67 25.7701 39.7L25.2501 39.83C25.1701 39.85 25.0901 39.89 25.0301 39.95C24.9601 40 24.9001 40.06 24.8601 40.13C24.8101 40.2 24.7901 40.29 24.7801 40.37C24.7601 40.46 24.7601 40.54 24.7901 40.63L24.8601 40.79C24.9201 40.89 25.0001 40.97 25.0901 41.02L25.2501 41.09C25.3701 41.12 25.4801 41.12 25.6001 41.09Z" fill="#FF9522"/>
<path d="M17.04 26.68V26.94C17.04 27.03 17.06 27.11 17.1 27.19C17.13 27.27 17.17 27.34 17.23 27.4C17.29 27.46 17.36 27.51 17.44 27.53C17.52 27.57 17.6 27.59 17.69 27.59L17.86 27.57C17.97 27.54 18.07 27.48 18.15 27.4L18.25 27.27C18.31 27.17 18.34 27.06 18.34 26.94V26.68C18.34 26.59 18.32 26.51 18.28 26.43C18.25 26.35 18.21 26.28 18.15 26.22C18.09 26.16 18.02 26.11 17.94 26.09C17.86 26.05 17.78 26.03 17.69 26.03L17.52 26.05C17.41 26.08 17.31 26.14 17.23 26.22L17.13 26.35C17.07 26.45 17.04 26.56 17.04 26.68Z" fill="#53A027"/>
<path d="M11.39 17.36H11C10.91 17.36 10.83 17.38 10.75 17.42C10.67 17.45 10.6 17.49 10.54 17.55C10.48 17.61 10.43 17.68 10.41 17.76C10.37 17.84 10.35 17.92 10.35 18.01L10.37 18.18C10.4 18.29 10.46 18.39 10.54 18.47L10.67 18.57C10.77 18.63 10.88 18.66 11 18.66H11.39C11.48 18.66 11.56 18.64 11.64 18.6C11.72 18.57 11.79 18.53 11.85 18.47C11.91 18.41 11.96 18.34 11.98 18.26C12.02 18.18 12.04 18.1 12.04 18.01L12.02 17.84C11.99 17.73 11.93 17.63 11.85 17.55L11.72 17.45C11.62 17.39 11.51 17.36 11.39 17.36Z" fill="#53A027"/>
<path d="M24.58 32.52L24.71 32.65C24.77 32.71 24.84 32.76 24.92 32.78C25 32.82 25.08 32.84 25.17 32.84C25.26 32.84 25.34 32.82 25.42 32.78C25.5 32.75 25.57 32.71 25.63 32.65L25.73 32.52C25.79 32.42 25.82 32.31 25.82 32.19L25.8 32.02C25.77 31.91 25.71 31.81 25.63 31.73L25.5 31.6C25.44 31.54 25.37 31.49 25.29 31.47C25.21 31.43 25.13 31.41 25.04 31.41C24.95 31.41 24.87 31.43 24.79 31.47C24.71 31.5 24.64 31.54 24.58 31.6L24.48 31.73C24.42 31.83 24.39 31.94 24.39 32.06L24.41 32.23C24.44 32.34 24.5 32.44 24.58 32.52Z" fill="#53A027"/>
<path d="M14.73 34.35L14.47 34.61C14.41 34.67 14.36 34.74 14.34 34.82C14.3 34.9 14.28 34.98 14.28 35.07C14.28 35.16 14.3 35.24 14.34 35.32C14.37 35.4 14.41 35.47 14.47 35.53L14.6 35.63C14.7 35.69 14.81 35.72 14.93 35.72L15.1 35.7C15.21 35.67 15.31 35.61 15.39 35.53L15.65 35.27C15.71 35.21 15.76 35.14 15.78 35.06C15.82 34.98 15.84 34.9 15.84 34.81C15.84 34.72 15.82 34.64 15.78 34.56C15.75 34.48 15.71 34.41 15.65 34.35L15.52 34.25C15.42 34.19 15.31 34.16 15.19 34.16L15.02 34.18C14.91 34.21 14.81 34.27 14.73 34.35Z" fill="#53A027"/>
<path d="M32.26 33.76V34.02C32.26 34.11 32.28 34.19 32.32 34.27C32.35 34.35 32.39 34.42 32.45 34.48C32.51 34.54 32.58 34.59 32.66 34.61C32.74 34.65 32.82 34.67 32.91 34.67L33.08 34.65C33.19 34.62 33.29 34.56 33.37 34.48L33.47 34.35C33.53 34.25 33.56 34.14 33.56 34.02V33.76C33.56 33.67 33.54 33.59 33.5 33.51C33.47 33.43 33.43 33.36 33.37 33.3C33.31 33.24 33.24 33.19 33.16 33.17C33.08 33.13 33 33.11 32.91 33.11L32.74 33.13C32.63 33.16 32.53 33.22 32.45 33.3L32.35 33.43C32.29 33.53 32.26 33.64 32.26 33.76Z" fill="#53A027"/>
<path d="M21.36 42.29C22.2 42.29 22.2 40.99 21.36 40.99C20.52 40.99 20.52 42.29 21.36 42.29Z" fill="#53A027"/>
<path d="M10.21 40.59V40.72C10.21 40.81 10.23 40.89 10.27 40.97C10.3 41.05 10.34 41.12 10.4 41.18C10.46 41.24 10.53 41.29 10.61 41.31C10.69 41.35 10.77 41.37 10.86 41.37L11.03 41.35C11.14 41.32 11.24 41.26 11.32 41.18L11.42 41.05C11.48 40.95 11.51 40.84 11.51 40.72V40.59C11.51 40.5 11.49 40.42 11.45 40.34C11.42 40.26 11.38 40.19 11.32 40.13C11.26 40.07 11.19 40.02 11.11 40C11.03 39.96 10.95 39.94 10.86 39.94L10.69 39.96C10.58 39.99 10.48 40.05 10.4 40.13L10.3 40.26C10.24 40.36 10.21 40.47 10.21 40.59Z" fill="#53A027"/>
<path d="M19.4499 18.99L19.8399 19.26C19.9099 19.31 19.9999 19.33 20.0799 19.34C20.1699 19.36 20.2499 19.36 20.3399 19.33C20.4199 19.31 20.4999 19.27 20.5599 19.21C20.6299 19.16 20.6899 19.1 20.7299 19.03L20.7999 18.87C20.8299 18.75 20.8299 18.64 20.7999 18.52L20.7299 18.36C20.6699 18.26 20.5899 18.18 20.4999 18.13L20.1099 17.86C20.0399 17.81 19.9499 17.79 19.8699 17.78C19.7799 17.76 19.6999 17.76 19.6099 17.79C19.5299 17.81 19.4499 17.85 19.3899 17.91C19.3199 17.96 19.2599 18.02 19.2199 18.09L19.1499 18.25C19.1199 18.37 19.1199 18.48 19.1499 18.6L19.2199 18.76C19.2799 18.86 19.3599 18.94 19.4499 18.99V18.99Z" fill="#FF886C"/>
<path d="M16.25 22.19C18.15 22.19 20.35 23.06 20.99 25.03C21.39 26.25 22.1 27.32 22.89 27.87C24.22 28.82 23.85 28.71 24.83 30.02C25.81 31.33 26.54 32.97 26.22 34.58C25.92 36.08 24.75 37.3 23.38 37.99C22.01 38.68 20.61 39.11 19.09 39.24C18.23 39.31 17.19 39.24 16.36 39.02C14.34 38.49 13.4 37.34 11.53 35.4C10.61 34.45 9.98995 32.72 10.56 30.71C11.04 29.02 11.51 29.76 12.82 24.38C13.02 23.58 14.35 22.18 16.24 22.18L16.25 22.19Z" fill="#FFF7E9"/>
<path d="M16.57 36.07C18.3594 36.07 19.81 34.6194 19.81 32.83C19.81 31.0406 18.3594 29.59 16.57 29.59C14.7806 29.59 13.33 31.0406 13.33 32.83C13.33 34.6194 14.7806 36.07 16.57 36.07Z" fill="#FFB414"/>
<path d="M48.55 31.44H42.57C40.8966 31.44 39.54 32.7966 39.54 34.47V40.45C39.54 42.1234 40.8966 43.48 42.57 43.48H48.55C50.2235 43.48 51.58 42.1234 51.58 40.45V34.47C51.58 32.7966 50.2235 31.44 48.55 31.44Z" fill="#B06D1E"/>
<path d="M45.18 27.97C45.9 28.31 46.77 28.26 47.49 27.88C48.79 28.19 50.21 27.9 51.15 26.87C52.07 25.86 52.33 24.4 51.91 23.14C52.38 22.64 52.7 22.02 52.74 21.3C52.79 20.51 52.45 19.71 51.84 19.21C52.07 17.18 50.67 15.27 48.65 15.04C47.86 13.58 45.96 13.13 44.53 13.98C43.02 13.67 41.56 14.49 41.08 15.93C39.77 16.31 38.68 17.21 38.17 18.54C37.86 19.35 37.8 20.24 37.99 21.09C38.08 21.49 38.33 21.86 38.38 22.27C38.43 22.69 38.29 23.11 38.36 23.54C38.51 24.39 39.07 25.03 39.67 25.61C40.35 26.26 41.04 26.91 41.79 27.47C42.81 28.23 44.12 28.52 45.16 27.97H45.18Z" fill="#9BBF2C"/>
</g>
<defs>
<clipPath id="clip0_3251_29074">
<rect width="50" height="35.19" fill="white" transform="translate(5 12)"/>
</clipPath>
</defs>
</svg>
