<svg width="60" height="60" viewBox="0 0 60 60" fill="none" xmlns="http://www.w3.org/2000/svg">
<g clip-path="url(#clip0_3251_29081)">
<path d="M14.13 7H45.87C47.05 7 48 7.96 48 9.13V50.34C48 51.52 47.04 52.47 45.87 52.47H17.06C14.27 52.47 12 50.2 12 47.41V9.13C12 7.96 12.96 7 14.13 7Z" fill="#F74234"/>
<path d="M45.5 47.24C45.5 46.08 45.8 45.04 46.28 44.24H18.5C16.84 44.24 15.5 45.58 15.5 47.24C15.5 48.9 16.84 50.24 18.5 50.24H46.28C45.8 49.44 45.5 48.4 45.5 47.24Z" fill="#F7EEE2"/>
<path d="M41.73 11.74H19.27C18.5686 11.74 18 12.3086 18 13.01V16.47C18 17.1714 18.5686 17.74 19.27 17.74H41.73C42.4314 17.74 43 17.1714 43 16.47V13.01C43 12.3086 42.4314 11.74 41.73 11.74Z" fill="#FFD79E"/>
</g>
<defs>
<clipPath id="clip0_3251_29081">
<rect width="36" height="45.47" fill="white" transform="translate(12 7)"/>
</clipPath>
</defs>
</svg>
