<svg width="177" height="22" viewBox="0 0 177 22" fill="none" xmlns="http://www.w3.org/2000/svg">
<path d="M15.3342 18.26V10.52L14.4542 10.62V17.26L10.8742 17.98V15.88L8.31422 17.28L5.89422 12.82L3.31422 17.48L0.234219 15.8L4.09422 8.06V4.82H1.45422V1.04H10.4142V4.82H7.73422V8.1L10.8742 14.54V0.779999H14.4542V6.54L15.3342 6.44V0.779999H18.9542V17.56L15.3342 18.26ZM30.8936 17.4L27.3736 13.32L23.6936 17.6L20.7336 15.2L25.2936 9.56V8.48H21.5336V4.98H33.4536V8.48H29.5136V9.58L33.9536 14.82L30.8936 17.4ZM34.3936 18.26V0.779999H38.5136V17.46L34.3936 18.26ZM23.7336 4.42V0.859999H31.3536V4.42H23.7336Z" fill="#9E7CFE"/>
<path d="M52.753 5.48C52.753 6.13333 52.633 6.76 52.393 7.36C52.153 7.94667 51.7863 8.46667 51.293 8.92C50.813 9.37333 50.2063 9.74 49.473 10.02C48.7396 10.2867 47.8863 10.42 46.913 10.42C45.9263 10.42 45.0663 10.2867 44.333 10.02C43.613 9.74 43.0063 9.37333 42.513 8.92C42.033 8.46667 41.673 7.94667 41.433 7.36C41.193 6.76 41.073 6.13333 41.073 5.48V5.42C41.073 4.78 41.193 4.16 41.433 3.56C41.673 2.96 42.033 2.43333 42.513 1.98C43.0063 1.52667 43.613 1.16667 44.333 0.899999C45.0663 0.619999 45.9263 0.48 46.913 0.48C47.8863 0.48 48.7396 0.619999 49.473 0.899999C50.2063 1.16667 50.813 1.52667 51.293 1.98C51.7863 2.43333 52.153 2.96 52.393 3.56C52.633 4.16 52.753 4.78 52.753 5.42V5.48ZM48.633 5.46C48.633 5.02 48.4863 4.63333 48.193 4.3C47.8996 3.96667 47.473 3.8 46.913 3.8C46.3396 3.8 45.9063 3.96667 45.613 4.3C45.3196 4.63333 45.173 5.02 45.173 5.46C45.173 5.88667 45.3196 6.26667 45.613 6.6C45.9063 6.93333 46.3396 7.1 46.913 7.1C47.473 7.1 47.8996 6.93333 48.193 6.6C48.4863 6.26667 48.633 5.88667 48.633 5.46ZM54.273 15.44L50.733 18.22L47.213 15.44L43.893 18.22L41.613 15.6L45.213 12.64V11.24L49.233 10.86V12.44L50.733 13.56L52.233 12.34V11.04L56.273 10.64V12.24L60.053 15.2L57.573 18.22L54.273 15.44ZM54.153 10.3V0.779999H58.273V9.88L54.153 10.3ZM70.1523 17.98V10.46L68.0523 10.7V9.96L62.8723 17.48L59.8723 15.12L64.9723 7.58V4.72H61.0523V1.04H68.5923V6.56L70.1523 6.4V0.779999H73.7323V17.26L70.1523 17.98ZM74.6123 18.26V0.779999H78.2323V17.56L74.6123 18.26ZM79.7917 20.12C80.6717 19.1333 81.3717 18.1133 81.8917 17.06L80.0117 15.24L82.8917 12.46L85.7917 15.24C85.5384 15.7867 85.2451 16.3333 84.9117 16.88C84.5784 17.4267 84.2184 17.9667 83.8317 18.5C83.4584 19.0333 83.0584 19.54 82.6317 20.02C82.2184 20.5 81.8051 20.94 81.3917 21.34L79.7917 20.12ZM142.619 12.98C142.619 14.5 142.152 15.6733 141.219 16.5C140.299 17.3267 139.026 17.74 137.399 17.74C135.772 17.74 134.492 17.3267 133.559 16.5C132.626 15.6733 132.159 14.5 132.159 12.98V10.54C132.159 9.63333 132.406 8.94667 132.899 8.48H131.379V4.98H143.379V8.48H141.879C142.372 8.94667 142.619 9.63333 142.619 10.54V12.98ZM143.999 18.26V0.779999H148.119V6.76L150.239 6.52V10.6L148.119 10.84V17.46L143.999 18.26ZM133.579 4.42V0.859999H141.279V4.42H133.579ZM138.519 10.34C138.519 9.95333 138.426 9.61333 138.239 9.32C138.066 9.02667 137.779 8.88 137.379 8.88C136.992 8.88 136.706 9.02667 136.519 9.32C136.346 9.61333 136.259 9.95333 136.259 10.34V12.68C136.259 13.0667 136.346 13.4067 136.519 13.7C136.706 13.9933 136.999 14.14 137.399 14.14C137.786 14.14 138.066 13.9933 138.239 13.7C138.426 13.4067 138.519 13.0667 138.519 12.68V10.34ZM160.158 17.28L157.038 12.5L153.758 17.48L150.398 15.2L154.958 7.86V4.82H151.598V1.04H162.718V4.82H159.178V7.9L163.518 15L160.158 17.28ZM163.758 18.26V0.779999H167.878V6.56L169.998 6.32V10.4L167.878 10.64V17.46L163.758 18.26ZM172.418 12.34L171.518 0.48H176.158L175.258 12L172.418 12.34ZM173.818 18.32L170.938 15.54L173.818 12.76L176.718 15.54L173.818 18.32Z" fill="#262626"/>
<path d="M100.88 17.28L97.7603 12.5L94.4803 17.48L91.1203 15.2L95.6803 7.86V4.82H92.3203V1.04H103.44V4.82H99.9003V7.9L104.24 15L100.88 17.28ZM104.48 18.26V0.779999H108.6V6.56L110.72 6.32V10.4L108.6 10.64V17.46L104.48 18.26ZM125.04 18.26V14.26L120.4 14.74V17.96L116.36 18.56V15.14L111.92 15.58V12.34L125.04 11.02V0.779999H129.16V17.46L125.04 18.26ZM118.62 9.46L113.2 11.86L111.32 9.16L116.52 6.9V6.7H112.72V3.74H124.12V6.7H120.72V6.84L124.96 8.16L123.34 10.98L118.62 9.46ZM114.72 3.32V0.339999H122.32V3.32H114.72Z" fill="#FFBD6B"/>
</svg>
