<svg width="23" height="21" viewBox="0 0 23 21" fill="none" xmlns="http://www.w3.org/2000/svg">
<path d="M11.2405 0C5.01808 0 0 4.01442 0 8.88798C0 12.0514 2.08752 14.8213 5.2188 16.403L4.15898 20.3613C4.139 20.4207 4.13593 20.4843 4.15011 20.5453C4.16429 20.6063 4.19516 20.6621 4.23927 20.7065C4.30359 20.7633 4.38635 20.7946 4.47211 20.7948C4.54322 20.7891 4.61068 20.761 4.6648 20.7146L9.22524 17.6395C9.89841 17.7324 10.577 17.7807 11.2566 17.784C17.4709 17.784 22.4971 13.7696 22.4971 8.88798C22.4971 4.00639 17.4549 0 11.2405 0Z" fill="#392020"/>
<path d="M3.93391 7.48289H2.70549C2.55323 7.48731 2.40286 7.44831 2.27192 7.37047C2.21379 7.33405 2.16382 7.28599 2.12513 7.22934C2.08644 7.17269 2.05988 7.10866 2.04712 7.04126C2.04321 6.99853 2.04321 6.9556 2.04712 6.91287C2.0433 6.83291 2.05882 6.75317 2.09236 6.68049C2.12591 6.60781 2.17649 6.54432 2.23981 6.49535C2.37978 6.39397 2.54873 6.34042 2.72154 6.34275H6.42288C6.57634 6.33735 6.72774 6.37943 6.85644 6.4632C6.91594 6.49801 6.96697 6.54564 7.00585 6.60257C7.04473 6.6595 7.07048 6.72432 7.08125 6.79241C7.08517 6.83246 7.08517 6.87282 7.08125 6.91287C7.08504 6.99398 7.06955 7.07481 7.03606 7.14877C7.00256 7.22274 6.95201 7.28766 6.88856 7.33832C6.75199 7.43958 6.58468 7.49066 6.41485 7.48289H5.22657V11.7061C5.2314 11.7961 5.21747 11.886 5.18568 11.9703C5.15389 12.0547 5.10493 12.1315 5.0419 12.1959C4.98146 12.2574 4.90881 12.3057 4.82861 12.3375C4.74841 12.3693 4.66243 12.3839 4.57622 12.3805C4.42544 12.3848 4.27785 12.3366 4.15872 12.2441C4.04531 12.1537 3.96834 12.0253 3.94194 11.8827C3.93401 11.8241 3.93401 11.7647 3.94194 11.7061L3.93391 7.48289Z" fill="#FEE500"/>
<path d="M7.43556 6.65587C7.47087 6.52375 7.55381 6.40934 7.6684 6.33469C7.7905 6.26549 7.92963 6.2321 8.06984 6.23835H8.37494C8.52372 6.23302 8.67105 6.26916 8.80047 6.34273C8.93762 6.43496 9.03507 6.57539 9.07346 6.73614L10.6792 11.2725C10.7209 11.3909 10.7557 11.5115 10.7836 11.6339C10.7864 11.6847 10.7864 11.7356 10.7836 11.7864C10.7863 11.8646 10.7719 11.9425 10.7414 12.0146C10.7109 12.0867 10.665 12.1513 10.607 12.2039C10.5507 12.2615 10.4832 12.307 10.4086 12.3374C10.334 12.3678 10.2539 12.3824 10.1734 12.3805C10.0496 12.3928 9.92521 12.3631 9.82034 12.2961C9.71547 12.2291 9.63621 12.1287 9.59534 12.0112L9.25812 11.0237H7.14652L6.8093 12.0112C6.76942 12.1311 6.6892 12.2334 6.58233 12.3007C6.47545 12.3681 6.34853 12.3963 6.22319 12.3805C6.08742 12.3841 5.95443 12.3416 5.84583 12.26C5.74002 12.1759 5.66863 12.056 5.64511 11.9229C5.64085 11.8775 5.64085 11.8318 5.64511 11.7864C5.63132 11.7067 5.63132 11.6253 5.64511 11.5456C5.64511 11.4572 5.70131 11.3608 5.73342 11.2725L7.43556 6.65587ZM8.23845 7.70771L7.4757 10.1164H8.99317L8.23845 7.70771Z" fill="#FEE500"/>
<path d="M10.9675 6.91296C10.9593 6.73278 11.0228 6.55671 11.1441 6.42321C11.2058 6.36102 11.2798 6.31241 11.3614 6.28061C11.443 6.2488 11.5304 6.23441 11.6178 6.23846C11.7682 6.23671 11.915 6.28473 12.0353 6.37499C12.1469 6.46917 12.2209 6.60017 12.2441 6.74429C12.252 6.80021 12.252 6.85704 12.2441 6.91296V11.1362H14.452C14.6051 11.1342 14.7555 11.1759 14.8856 11.2565C14.9441 11.2926 14.9943 11.3406 15.033 11.3973C15.0718 11.454 15.0981 11.5182 15.1104 11.5858C15.1104 11.5858 15.1104 11.6661 15.1104 11.7062C15.1142 11.7862 15.0987 11.8658 15.0652 11.9385C15.0316 12.0112 14.981 12.0748 14.9177 12.1237C14.7778 12.2251 14.6088 12.2786 14.436 12.2762H11.7222C11.5494 12.2874 11.3776 12.2424 11.2324 12.1478C11.1026 12.0508 11.0161 11.9066 10.9916 11.7464C10.9857 11.6582 10.9857 11.5696 10.9916 11.4814L10.9675 6.91296Z" fill="#FEE500"/>
<path d="M15.2551 6.913C15.2502 6.73334 15.3133 6.55848 15.4317 6.42325C15.552 6.3139 15.7064 6.24934 15.8687 6.24056C16.0311 6.23178 16.1915 6.27929 16.3229 6.37503C16.4369 6.46838 16.5137 6.59932 16.5397 6.74433C16.5436 6.80046 16.5436 6.85687 16.5397 6.913V8.88005L18.571 6.53557C18.6493 6.45559 18.7324 6.38058 18.8199 6.31083C18.9024 6.26172 18.9969 6.23662 19.0929 6.2385C19.2332 6.23774 19.3704 6.27976 19.4863 6.35896C19.5409 6.39572 19.5875 6.44314 19.6234 6.49832C19.6592 6.5535 19.6836 6.61532 19.695 6.68013C19.6983 6.69603 19.6983 6.71246 19.695 6.72835C19.6911 6.74688 19.6911 6.76598 19.695 6.78451C19.6948 6.869 19.6726 6.95201 19.6308 7.02542C19.5882 7.10314 19.537 7.17577 19.4783 7.24212L18.1455 8.70344L19.7512 11.1924V11.2727C19.8346 11.3877 19.8996 11.5151 19.9439 11.6501V11.6902C19.9532 11.7832 19.9398 11.8771 19.9049 11.9638C19.8699 12.0505 19.8144 12.1274 19.7432 12.188C19.6093 12.2892 19.4454 12.3429 19.2775 12.3406C19.166 12.3452 19.0552 12.3202 18.9564 12.2682C18.8495 12.1965 18.7613 12.1002 18.6995 11.9872L17.2061 9.57856L16.4915 10.3253V11.6661C16.4963 11.8457 16.4332 12.0206 16.3149 12.1558C16.2514 12.2178 16.1759 12.2663 16.0931 12.298C16.0103 12.3298 15.9218 12.3443 15.8331 12.3406C15.685 12.3437 15.5403 12.2954 15.4237 12.204C15.3102 12.1136 15.2333 11.9854 15.2069 11.8428C15.1989 11.7842 15.1989 11.7247 15.2069 11.6661L15.2551 6.913Z" fill="#FEE500"/>
</svg>
