<svg width="60" height="60" viewBox="0 0 60 60" fill="none" xmlns="http://www.w3.org/2000/svg">
<g clip-path="url(#clip0_3251_29079)">
<path d="M16.9599 50.6C11.4299 50.11 7.34995 45.23 7.83995 39.7C7.83995 39.7 8.13995 29.03 10.9999 20.29C13.8599 11.55 16.0299 10.65 21.5599 11.14C27.0899 11.63 28.6699 17.12 28.1799 22.65L27.8599 41.48C27.3699 47.01 22.4899 51.09 16.9599 50.6V50.6Z" fill="#C1E3EA"/>
<path d="M27.1199 43.27C27.1199 43.27 21.6699 40.69 17.8799 40.3C11.8199 39.69 7.48995 41.28 7.48995 41.28C6.78995 41.21 6.27995 40.58 6.35995 39.87L7.71995 29.97C7.78995 29.26 8.71995 28.78 8.75995 28.78C8.75995 28.78 10.8899 26.49 17.9499 27.2C24.4299 27.86 28.3899 30.77 28.3899 30.77C28.4199 30.77 29.5999 31.47 29.5199 32.18L28.5099 42.11C28.4399 42.82 27.8099 43.34 27.1099 43.27H27.1199Z" fill="#87BAC6"/>
<path d="M42.68 50.63C48.22 50.32 52.46 45.58 52.15 40.04C52.15 40.04 52.2 29.36 49.62 20.54C47.04 11.72 44.91 10.74 39.37 11.05C33.83 11.36 32.06 16.8 32.37 22.34L32.08 41.17C32.39 46.71 37.13 50.95 42.67 50.64L42.68 50.63Z" fill="#C1E3EA"/>
<path d="M32.7699 42.98C32.7699 42.98 38.2999 40.58 42.0999 40.32C48.1799 39.9 52.4499 41.63 52.4499 41.63C53.1499 41.58 53.6799 40.97 53.6299 40.26L52.5899 30.32C52.5399 29.61 51.6299 29.1 51.5899 29.1C51.5899 29.1 49.5299 26.74 42.4599 27.22C35.9599 27.66 31.9099 30.44 31.9099 30.44C31.8799 30.44 30.6799 31.1 30.7299 31.81L31.4099 41.77C31.4599 42.48 32.0699 43.02 32.7699 42.97V42.98Z" fill="#87BAC6"/>
</g>
<defs>
<clipPath id="clip0_3251_29079">
<rect width="47.28" height="39.65" fill="white" transform="translate(6.34998 11)"/>
</clipPath>
</defs>
</svg>
