<svg width="80" height="92" viewBox="0 0 80 92" fill="none" xmlns="http://www.w3.org/2000/svg">
<path fill-rule="evenodd" clip-rule="evenodd" d="M21.6588 0V6.79287H71.1405L71.3259 7.76898C71.7618 10.0641 71.8745 11.9363 71.3293 13.729C70.7846 15.5201 69.6318 17.0734 67.8806 18.8425L66.5411 19.8556L39.2388 39.7139H68.0308L68.2162 40.69C68.6521 42.9851 68.7648 44.8573 68.2196 46.65C67.6749 48.4411 66.5221 49.9944 64.7709 51.7635L64.0411 52.3556L36.1291 72.6349H57.4234V65.9342L76.1631 78.7838L57.4234 91.6334V85.1479H9.70795L9.45554 84.2847C8.86597 82.2685 8.60979 80.3209 8.95367 78.4139C9.30096 76.4879 10.2409 74.7092 11.8659 73.0065L12.5411 72.3556L40.7655 52.2269L12.8177 52.2269L12.5652 51.3637C11.9757 49.3475 11.7195 47.3999 12.0634 45.4928C12.4107 43.5669 13.3506 41.7882 14.9756 40.0854L16.0411 39.3556L43.8752 19.3059H21.6588V25.6684L4 12.8342L21.6588 0Z" fill="#D09EB2"/>
<path fill-rule="evenodd" clip-rule="evenodd" d="M21.6588 0V6.79287H71.1405L71.3259 7.76898C71.7618 10.0641 71.8745 11.9363 71.3293 13.729C70.7846 15.5201 69.6318 17.0734 67.8806 18.8425L66.5411 19.8556L39.2388 39.7139H68.0308L68.2162 40.69C68.6521 42.9851 68.7648 44.8573 68.2196 46.65C67.6749 48.4411 66.5221 49.9944 64.7709 51.7635L64.0411 52.3556L36.1291 72.6349H57.4234V65.9342L76.1631 78.7838L57.4234 91.6334V85.1479H9.70795L9.45554 84.2847C8.86597 82.2685 8.60979 80.3209 8.95367 78.4139C9.30096 76.4879 10.2409 74.7092 11.8659 73.0065L12.5411 72.3556L40.7655 52.2269L12.8177 52.2269L12.5652 51.3637C11.9757 49.3475 11.7195 47.3999 12.0634 45.4928C12.4107 43.5669 13.3506 41.7882 14.9756 40.0854L16.0411 39.3556L43.8752 19.3059H21.6588V25.6684L4 12.8342L21.6588 0Z" fill="#D09EB2"/>
<path d="M21.6588 0V6.79287H71.1405L71.3259 7.76898C71.7618 10.0641 71.8745 11.9363 71.3293 13.729C70.7846 15.5201 69.6318 17.0734 67.8806 18.8425L66.5411 19.8556L39.6981 39.3799L21.6588 52.1266H12.7946L12.5652 51.3637C11.9757 49.3475 11.7195 47.3999 12.0634 45.4928C12.4107 43.5669 13.3506 41.7882 14.9756 40.0854L16.0411 39.3556L43.8752 19.3059H21.6588V25.6684L4 12.8342L21.6588 0Z" fill="#9E7CFE"/>
<path d="M40.7654 52.2269L57.4234 39.7139H67.7852H68.0308L68.2162 40.69C68.6521 42.9851 68.7648 44.8573 68.2196 46.65C67.6749 48.4411 66.5221 49.9944 64.7709 51.7635L64.0411 52.3556L36.1291 72.6349H57.4234V65.9342L76.1631 78.7838L57.4234 91.6334V85.1479H9.70794L9.45552 84.2847C8.86595 82.2685 8.60977 80.3209 8.95366 78.4138C9.30095 76.4879 10.2409 74.7092 11.8659 73.0064L12.5411 72.3556L40.7654 52.2269Z" fill="#FFBD6B"/>
</svg>
