<svg width="16" height="16" viewBox="0 0 16 16" fill="none" xmlns="http://www.w3.org/2000/svg">
<path d="M12.8842 3.85189C13.3337 4.52449 13.3337 5.4608 13.3337 7.33341C13.3337 9.20603 13.3337 10.1423 12.8842 10.8149C12.6897 11.1061 12.4397 11.3561 12.1485 11.5507C11.5609 11.9433 10.7721 11.9929 9.33366 11.9992V12.0001L8.59661 13.4742C8.35093 13.9655 7.64972 13.9655 7.40404 13.4742L6.66699 12.0001V11.9992C5.22852 11.9929 4.43971 11.9433 3.85214 11.5507C3.56096 11.3561 3.31096 11.1061 3.11641 10.8149C2.66699 10.1423 2.66699 9.20603 2.66699 7.33341C2.66699 5.4608 2.66699 4.52449 3.11641 3.85189C3.31096 3.56072 3.56096 3.31072 3.85214 3.11616C4.52473 2.66675 5.46104 2.66675 7.33366 2.66675H8.66699C10.5396 2.66675 11.4759 2.66675 12.1485 3.11616C12.4397 3.31072 12.6897 3.56072 12.8842 3.85189Z" stroke="#CCCCCC" stroke-linecap="round" stroke-linejoin="round"/>
<path d="M6 6L10 6" stroke="#CCCCCC" stroke-linecap="round" stroke-linejoin="round"/>
<path d="M6 8.66675H8" stroke="#CCCCCC" stroke-linecap="round" stroke-linejoin="round"/>
</svg>
