<svg width="60" height="60" viewBox="0 0 60 60" fill="none" xmlns="http://www.w3.org/2000/svg">
<g clip-path="url(#clip0_3251_29086)">
<path d="M29.96 19.41V26.88" stroke="#5D8F3C" stroke-width="1.5" stroke-miterlimit="10" stroke-linecap="round"/>
<path d="M29.9599 19.85C29.9599 19.85 28.7399 9.06 40.7299 9C41.1299 9 41.4599 9.35 41.4299 9.75C40.6499 21.71 29.9499 19.86 29.9499 19.86" fill="#7EAB50"/>
<path d="M30.4499 19.76C30.4499 19.76 31.1399 8.93 19.1599 9.45C18.7599 9.47 18.4499 9.83 18.4899 10.23C19.8499 22.14 30.4399 19.77 30.4399 19.77" fill="#7EAB50"/>
<path d="M39.7 27.12H20.22C18.73 27.12 17.59 28.39 17.82 29.81L20.92 49.13C21.1 50.27 22.12 51.11 23.32 51.11H26.23C26.79 51.11 27.28 50.82 27.6 50.39C28.25 49.51 29.31 48.93 30.52 48.93C31.73 48.93 32.8 49.51 33.44 50.39C33.76 50.83 34.26 51.11 34.81 51.11H37.5C38.74 51.11 39.79 50.21 39.92 49.03L42.1 29.71C42.26 28.33 41.13 27.13 39.68 27.13L39.7 27.12Z" fill="#846257"/>
<path d="M41.19 25.01H18.73C17.4155 25.01 16.35 26.0756 16.35 27.39V28.93C16.35 30.2444 17.4155 31.31 18.73 31.31H41.19C42.5044 31.31 43.57 30.2444 43.57 28.93V27.39C43.57 26.0756 42.5044 25.01 41.19 25.01Z" fill="#846257"/>
<path d="M20.53 31.31C20.19 31.3 39.4 31.31 39.4 31.31" stroke="#664C42" stroke-width="1.5" stroke-miterlimit="10" stroke-linecap="round"/>
</g>
<defs>
<clipPath id="clip0_3251_29086">
<rect width="27.22" height="42.1" fill="white" transform="translate(16.35 9)"/>
</clipPath>
</defs>
</svg>
