<svg width="32" height="32" viewBox="0 0 32 32" fill="none" xmlns="http://www.w3.org/2000/svg">
<path d="M4 13.1388C4 11.7735 5.10681 10.6667 6.47214 10.6667V10.6667C7.40851 10.6667 8.26452 10.1377 8.68328 9.30014L9.77778 7.11115C10.1032 6.4604 10.2658 6.13502 10.5096 5.89834C10.7181 5.69602 10.968 5.54153 11.2422 5.4456C11.5629 5.33337 11.9267 5.33337 12.6543 5.33337H19.3457C20.0733 5.33337 20.4371 5.33337 20.7578 5.4456C21.032 5.54153 21.2819 5.69602 21.4904 5.89834C21.7342 6.13502 21.8968 6.4604 22.2222 7.11115L23.3167 9.30014C23.7355 10.1377 24.5915 10.6667 25.5279 10.6667V10.6667C26.8932 10.6667 28 11.7735 28 13.1388V20.6667C28 23.4951 28 24.9093 27.1213 25.788C26.2426 26.6667 24.8284 26.6667 22 26.6667H10C7.17157 26.6667 5.75736 26.6667 4.87868 25.788C4 24.9093 4 23.4951 4 20.6667V13.1388Z" stroke="#E5E5E5" stroke-width="1.5"/>
<path d="M20.5834 17.3333C20.5834 19.8646 18.5313 21.9167 16 21.9167C13.4687 21.9167 11.4167 19.8646 11.4167 17.3333C11.4167 14.802 13.4687 12.75 16 12.75C18.5313 12.75 20.5834 14.802 20.5834 17.3333Z" stroke="#E5E5E5" stroke-width="1.5"/>
</svg>
