<svg width="60" height="60" viewBox="0 0 60 60" fill="none" xmlns="http://www.w3.org/2000/svg">
<g clip-path="url(#clip0_3251_29075)">
<path d="M48.23 41.69L44.35 19.11C43.78 15.78 40.89 13.34 37.51 13.34H22.56C19.64 13.34 17.1 15.36 16.45 18.21L15.05 24.32C11.7 24.06 9.76996 19.01 8.69996 18.8C8.13996 18.69 4.22996 18.8 4.12996 18.8C1.98996 18.8 4.22996 21.04 4.22996 22.15C4.22996 28.56 9.05996 34.39 12.5 35.48L11.19 41.2C9.86996 46.97 14.26 52.47 20.18 52.47H39.15C44.86 52.47 49.2 47.32 48.23 41.69Z" fill="#D5EAF2"/>
<path d="M48.5799 22.15L43.8699 22.29C39.4299 22.42 35.9299 26.14 36.0599 30.58C36.1199 32.73 37.0199 34.73 38.5899 36.2C40.0999 37.62 42.0499 38.39 44.1099 38.39C44.1899 38.39 44.2799 38.39 44.3599 38.39L49.0699 38.25C51.2199 38.19 53.2199 37.29 54.6899 35.72C56.1699 34.15 56.9399 32.11 56.8799 29.96C56.7499 25.52 53.0599 21.99 48.5799 22.15V22.15ZM51.0599 30.14C51.0999 31.43 50.0799 32.51 48.7899 32.55L44.2799 32.68C42.9999 32.69 41.9099 31.7 41.8699 30.41C41.8299 29.12 42.8499 28.04 44.1399 28L48.6499 27.87C48.6499 27.87 48.6999 27.87 48.7199 27.87C49.9799 27.87 51.0199 28.87 51.0599 30.14Z" fill="#D5EAF2"/>
<path d="M42.97 12.77L42.37 11.27C41.92 10.15 40.66 9.38999 39.24 9.38999H31.94C31.98 9.22999 32.01 9.05999 32.01 8.88999C32.01 7.83999 31.16 6.98999 30.11 6.98999C29.06 6.98999 28.21 7.83999 28.21 8.88999C28.21 9.05999 28.24 9.22999 28.28 9.38999H21.08C19.6 9.38999 18.29 10.18 17.83 11.34L17.26 12.76C16.94 13.56 17.65 14.39 18.67 14.39H41.56C42.57 14.39 43.29 13.56 42.97 12.76V12.77Z" fill="#99BBC7"/>
<path d="M34.88 21.9H40.38" stroke="#ABD1DE" stroke-width="1.5" stroke-miterlimit="10" stroke-linecap="round"/>
<path d="M34.88 27.9H40.38" stroke="#ABD1DE" stroke-width="1.5" stroke-miterlimit="10" stroke-linecap="round"/>
<path d="M34.88 33.9H40.38" stroke="#ABD1DE" stroke-width="1.5" stroke-miterlimit="10" stroke-linecap="round"/>
<path d="M34.88 39.9H40.38" stroke="#ABD1DE" stroke-width="1.5" stroke-miterlimit="10" stroke-linecap="round"/>
</g>
<defs>
<clipPath id="clip0_3251_29075">
<rect width="53.68" height="45.47" fill="white" transform="translate(3.19995 7)"/>
</clipPath>
</defs>
</svg>
