<svg width="60" height="60" viewBox="0 0 60 60" fill="none" xmlns="http://www.w3.org/2000/svg">
<g clip-path="url(#clip0_3251_29078)">
<path d="M57.58 30.75C56.2 28.28 52.27 21.31 50.5 18.66C48.57 15.76 44.91 13.73 44.15 13.33C44.06 13.28 43.97 13.25 43.87 13.23C40.01 12.48 34.07 12.26 30.95 12.2C30.92 12.2 30.89 12.18 30.85 12.18C30.7 12.18 30.53 12.18 30.34 12.18C30.16 12.18 29.98 12.18 29.83 12.18C29.79 12.18 29.77 12.2 29.73 12.2C26.61 12.26 20.67 12.48 16.81 13.23C16.71 13.25 16.62 13.28 16.53 13.33C15.77 13.73 12.12 15.76 10.18 18.66C8.43997 21.31 4.50997 28.28 3.12997 30.75C2.85997 31.24 3.03997 31.85 3.52997 32.11L13.97 37.81C14.31 38 14.48 38.36 14.49 38.76C14.53 41.36 14.5 51.85 14.53 54.01C14.53 54.19 14.68 54.33 14.86 54.33H45.87C46.05 54.33 46.2 54.19 46.2 54.01C46.22 51.85 46.2 41.36 46.24 38.76C46.24 38.37 46.42 38 46.76 37.81L57.2 32.11C57.69 31.84 57.87 31.23 57.6 30.75H57.58Z" fill="#E8E8E8"/>
<mask id="mask0_3251_29078" style="mask-type:alpha" maskUnits="userSpaceOnUse" x="3" y="12" width="55" height="43">
<path d="M57.5756 30.57C56.1956 28.1 52.2656 21.13 50.4956 18.48C48.5656 15.58 44.9056 13.55 44.1456 13.15C44.0556 13.1 43.9656 13.07 43.8656 13.05C40.0056 12.3 34.0656 12.08 30.9456 12.02C30.9156 12.02 30.8856 12 30.8456 12C30.6956 12 30.5256 12 30.3356 12C30.1556 12 29.9756 12 29.8256 12C29.7856 12 29.7656 12.02 29.7256 12.02C26.6056 12.08 20.6656 12.3 16.8056 13.05C16.7056 13.07 16.6156 13.1 16.5256 13.15C15.7656 13.55 12.1156 15.58 10.1756 18.48C8.43557 21.13 4.50557 28.1 3.12557 30.57C2.85557 31.06 3.03557 31.67 3.52557 31.93L13.9656 37.63C14.3056 37.82 14.4756 38.18 14.4856 38.58C14.5256 41.18 14.4956 51.67 14.5256 53.83C14.5256 54.01 14.6756 54.15 14.8556 54.15H45.8656C46.0456 54.15 46.1956 54.01 46.1956 53.83C46.2156 51.67 46.1956 41.18 46.2356 38.58C46.2356 38.19 46.4156 37.82 46.7556 37.63L57.1956 31.93C57.6856 31.66 57.8656 31.05 57.5956 30.57H57.5756Z" fill="#E8E8E8"/>
</mask>
<g mask="url(#mask0_3251_29078)">
<path d="M29.93 18.34C33.9617 18.34 37.23 15.5776 37.23 12.17C37.23 8.7624 33.9617 6 29.93 6C25.8983 6 22.63 8.7624 22.63 12.17C22.63 15.5776 25.8983 18.34 29.93 18.34Z" fill="#CCCCCC"/>
<path d="M13.08 32.8L12.97 38.52C12.95 39.49 14.45 39.49 14.47 38.52L14.58 32.8C14.6 31.83 13.1 31.83 13.08 32.8V32.8Z" fill="#CCCCCC"/>
<path d="M46.43 31.8L46.32 37.52C46.3 38.49 47.8 38.49 47.82 37.52L47.93 31.8C47.95 30.83 46.45 30.83 46.43 31.8Z" fill="#CCCCCC"/>
</g>
<path d="M26.31 20.35C26.9 20.74 27.57 20.89 28.26 20.97C29.05 21.06 29.85 21.12 30.64 21.11C32.08 21.11 33.54 20.78 34.61 19.76C35.08 19.32 34.37 18.61 33.9 19.05C32.99 19.91 31.7 20.11 30.49 20.1C29.83 20.1 29.16 20.05 28.5 19.98C27.9 19.92 27.32 19.81 26.81 19.47C26.27 19.11 25.77 19.98 26.31 20.33V20.35Z" fill="#DDDDDD"/>
<path d="M35.12 28.07C35.9 27.95 36.59 27.46 37 26.79C37.25 26.38 37.71 25.2 37.14 24.85C36.84 24.67 36.62 24.98 36.48 25.21C36.3 25.51 36.21 25.87 36.43 26.17C37.02 26.94 37.88 25.6 38.16 25.17L37.79 25.02C37.7 25.46 37.64 25.91 37.63 26.37C37.62 26.76 37.56 27.29 37.7 27.66C37.79 27.9 38.02 27.93 38.23 27.83C38.39 27.75 38.55 27.62 38.68 27.51C38.76 27.44 38.84 27.36 38.92 27.29C39.07 27.15 39 27.15 39.08 27.26C39.15 27.37 39.16 27.56 39.22 27.69C39.28 27.82 39.35 27.95 39.45 28.05C39.65 28.26 39.91 28.34 40.19 28.28C40.83 28.13 41.44 27.55 41.34 26.87C41.33 26.78 41.23 26.72 41.15 26.72C40.8 26.72 40.41 26.74 40.21 27.07C40.06 27.31 40.13 27.61 40.34 27.8C40.62 28.05 41.01 27.99 41.35 27.92C41.81 27.83 42.24 27.66 42.65 27.44C42.88 27.32 42.68 26.97 42.45 27.09C42.11 27.27 41.75 27.41 41.37 27.5C41.19 27.54 40.8 27.67 40.64 27.52C40.24 27.15 40.96 27.11 41.14 27.11L40.95 26.96C41 27.32 40.67 27.59 40.39 27.75C40.04 27.94 39.78 27.91 39.6 27.56C39.47 27.3 39.48 26.65 39.04 26.7C38.82 26.73 38.68 26.94 38.54 27.08C38.44 27.17 38.3 27.33 38.17 27.38C38.08 27.48 38.04 27.48 38.05 27.38C38.05 27.29 38.03 27.2 38.03 27.11C37.99 26.44 38.03 25.77 38.17 25.11C38.21 24.89 37.93 24.76 37.8 24.96C37.64 25.19 37.48 25.41 37.29 25.61C37.23 25.67 37.14 25.82 37.05 25.85C36.98 25.96 36.9 25.94 36.83 25.79C36.66 25.73 36.63 25.63 36.74 25.49C36.75 25.46 36.88 25.22 36.93 25.23C36.96 25.23 36.95 25.5 36.94 25.53C36.94 25.74 36.89 25.94 36.82 26.14C36.54 26.95 35.82 27.54 34.98 27.66C34.73 27.7 34.83 28.08 35.09 28.05L35.12 28.07Z" fill="#414144"/>
<path d="M39.12 25.81H39.07C39.07 25.81 39.02 25.81 38.99 25.83C38.97 25.83 38.94 25.85 38.93 25.87C38.91 25.89 38.9 25.91 38.89 25.93C38.88 25.95 38.87 25.98 38.87 26.01V26.06C38.87 26.06 38.9 26.12 38.93 26.15C38.97 26.19 39.02 26.21 39.07 26.21H39.12C39.12 26.21 39.17 26.21 39.2 26.19C39.22 26.19 39.25 26.17 39.26 26.15C39.28 26.13 39.29 26.11 39.3 26.09C39.31 26.07 39.32 26.04 39.32 26.01V25.96C39.32 25.96 39.29 25.9 39.26 25.87C39.22 25.83 39.17 25.81 39.12 25.81Z" fill="#CC3B3B"/>
</g>
<defs>
<clipPath id="clip0_3251_29078">
<rect width="54.71" height="48.33" fill="white" transform="translate(3 6)"/>
</clipPath>
</defs>
</svg>
