<svg width="24" height="24" viewBox="0 0 24 24" fill="none" xmlns="http://www.w3.org/2000/svg">
<path d="M9.57928 6.54587L10.2784 6.81742L9.57928 6.54587L9.54531 6.63333C9.33378 7.17792 9.19432 7.53454 9.05983 7.79877C8.93266 8.04863 8.83862 8.15571 8.74942 8.2242C8.6617 8.29155 8.53979 8.35158 8.2777 8.40413C7.99745 8.46033 7.6301 8.49528 7.06306 8.54773L6.86371 8.56616C6.84305 8.56807 6.82246 8.56998 6.80194 8.57187C5.95235 8.6504 5.23026 8.71715 4.70079 8.84619C4.17146 8.97519 3.54414 9.23428 3.31953 9.92397C3.098 10.6042 3.43836 11.1876 3.78051 11.6155C4.12512 12.0466 4.6598 12.5489 5.29243 13.1432L5.33639 13.1845L5.7837 13.6048C6.51602 14.2929 6.68937 14.4803 6.7716 14.6976C6.78978 14.7456 6.80493 14.7949 6.81692 14.8452C6.87201 15.076 6.83327 15.3392 6.61909 16.3362L6.55725 16.624L6.54775 16.6682C6.37324 17.4804 6.2297 18.1485 6.17404 18.6578C6.12302 19.1246 6.10369 19.7387 6.49566 20.1895C6.70903 20.4348 6.98909 20.6145 7.30405 20.7032C7.89468 20.8696 8.43918 20.5603 8.81909 20.3045C9.23688 20.0232 9.75198 19.5897 10.3748 19.0656L10.4107 19.0354C10.8508 18.665 11.1411 18.4218 11.3809 18.2561C11.6101 18.0979 11.7353 18.0527 11.8295 18.0372C11.9425 18.0185 12.0575 18.0185 12.1705 18.0372C12.2647 18.0527 12.3899 18.0979 12.6191 18.2561C12.8589 18.4218 13.1492 18.665 13.5893 19.0354L13.6252 19.0656C14.248 19.5897 14.7631 20.0232 15.1809 20.3045C15.5608 20.5603 16.1053 20.8696 16.6959 20.7032C17.0109 20.6145 17.291 20.4348 17.5043 20.1895C17.8963 19.7387 17.877 19.1246 17.826 18.6578C17.7703 18.1485 17.6268 17.4804 17.4522 16.6682L17.4428 16.624L17.3809 16.3362C17.1667 15.3392 17.128 15.076 17.1831 14.8452L16.4536 14.6711L17.1831 14.8452C17.1951 14.7949 17.2102 14.7456 17.2284 14.6976C17.3106 14.4803 17.484 14.2929 18.2163 13.6048L18.6636 13.1845L18.7076 13.1432C19.3402 12.5489 19.8749 12.0466 20.2195 11.6155C20.5616 11.1876 20.902 10.6042 20.6805 9.92397C20.4559 9.23428 19.8285 8.97519 19.2992 8.84619C18.7697 8.71715 18.0476 8.6504 17.1981 8.57187L17.1363 8.56616L16.9369 8.54773C16.3699 8.49528 16.0025 8.46033 15.7223 8.40413C15.4602 8.35158 15.3383 8.29155 15.2506 8.2242C15.1614 8.15571 15.0673 8.04863 14.9402 7.79877C14.8057 7.53455 14.6662 7.17792 14.4547 6.63334L14.4207 6.54588L13.7216 6.81741L14.4207 6.54587L14.3988 6.48947C14.0527 5.59834 13.764 4.85502 13.4781 4.3402C13.2074 3.85275 12.7683 3.25 12 3.25C11.2317 3.25 10.7926 3.85275 10.5219 4.3402C10.236 4.85502 9.94728 5.59833 9.60119 6.48946L9.57928 6.54587Z" fill="#E5E5E5" stroke="#E5E5E5" stroke-width="1.5" stroke-linejoin="round"/>
</svg>
