<svg width="28" height="28" viewBox="0 0 28 28" fill="none" xmlns="http://www.w3.org/2000/svg">
<path d="M11.2525 7.78447L11.9517 8.05602L11.2525 7.78447C11.0067 8.41749 10.8415 8.84043 10.681 9.15559C10.5279 9.45639 10.4078 9.599 10.2836 9.69437C10.1609 9.7886 9.99852 9.86418 9.68173 9.92771C9.34679 9.99487 8.91051 10.0362 8.25159 10.0971L8.01901 10.1187L7.9555 10.1245C6.95688 10.2168 6.12231 10.294 5.51368 10.4423C4.90514 10.5906 4.23218 10.8779 3.99148 11.617C3.75386 12.3466 4.1141 12.9809 4.50806 13.4737C4.90445 13.9695 5.52269 14.5504 6.26607 15.2488L6.31122 15.2912L6.83307 15.7815C7.67848 16.5758 7.90836 16.8164 8.01695 17.1033C8.04004 17.1643 8.05927 17.2269 8.0745 17.2907C8.14691 17.5941 8.09161 17.9344 7.84432 19.0854L7.77217 19.4212L7.76248 19.4664C7.5577 20.4195 7.39137 21.1936 7.32714 21.7813C7.26755 22.3266 7.25389 22.9914 7.67243 23.4727L8.23835 22.9805L7.67243 23.4727C7.90565 23.7408 8.21151 23.9369 8.55513 24.0338C9.18412 24.211 9.77501 23.8842 10.219 23.5853C10.7007 23.2609 11.2974 22.7588 12.0285 22.1435L12.0652 22.1126C12.5768 21.6821 12.9207 21.3937 13.2066 21.1963C13.4817 21.0063 13.6453 20.9427 13.7806 20.9204C13.9259 20.8964 14.0738 20.8964 14.219 20.9204C14.3544 20.9427 14.518 21.0063 14.7931 21.1963C15.079 21.3937 15.4229 21.6821 15.9345 22.1126L15.9712 22.1435C16.7023 22.7588 17.2989 23.2609 17.7807 23.5853C18.2247 23.8842 18.8156 24.211 19.4445 24.0338C19.7882 23.9369 20.094 23.7408 20.3272 23.4727C20.7458 22.9914 20.7321 22.3266 20.6725 21.7813C20.6083 21.1936 20.442 20.4195 20.2372 19.4664L20.2275 19.4212L20.1554 19.0854C19.9081 17.9344 19.8528 17.5941 19.9252 17.2907C19.9404 17.2269 19.9596 17.1643 19.9827 17.1033C20.0913 16.8164 20.3212 16.5758 21.1666 15.7815L21.6885 15.2912L21.7337 15.2487C22.477 14.5503 23.0952 13.9695 23.4916 13.4737C23.8856 12.9809 24.2458 12.3466 24.0082 11.617C23.7675 10.8779 23.0945 10.5906 22.486 10.4423C21.8774 10.294 21.0428 10.2168 20.0442 10.1245L19.9807 10.1187L19.7481 10.0971C19.0892 10.0362 18.6529 9.99487 18.3179 9.92771C18.0012 9.86418 17.8388 9.7886 17.7161 9.69437C17.5919 9.599 17.4717 9.45639 17.3186 9.15559C17.1582 8.84043 16.993 8.41749 16.7471 7.78448L16.7075 7.68244L16.685 7.62461C16.2786 6.57805 15.9444 5.7176 15.615 5.12459C15.3008 4.55887 14.8205 3.91699 13.9998 3.91699C13.1792 3.91699 12.6988 4.55887 12.3847 5.12459C12.0553 5.71761 11.7211 6.57806 11.3146 7.62463L11.2922 7.68243L11.2525 7.78447Z" fill="#E5E5E5" stroke="#E5E5E5" stroke-width="1.5" stroke-linejoin="round"/>
</svg>
