<svg width="60" height="60" viewBox="0 0 60 60" fill="none" xmlns="http://www.w3.org/2000/svg">
<g clip-path="url(#clip0_3251_29077)">
<path d="M9.13999 11H50.67C51.44 11 52.07 11.63 52.07 12.4V39.5H7.73999V12.4C7.73999 11.63 8.36999 11 9.13999 11V11Z" fill="#D3D3D3"/>
<path d="M55.5599 49H4.25994C3.45994 49 2.94994 48.14 3.33994 47.43L7.74994 39.5H52.0699L56.4799 47.43C56.8699 48.13 56.3599 49 55.5599 49Z" fill="#D3D3D3"/>
<path d="M12.0399 14.1H47.7699C48.5399 14.1 49.1699 14.73 49.1699 15.5V35.4C49.1699 35.95 48.7199 36.4 48.1699 36.4H11.6399C11.0899 36.4 10.6399 35.95 10.6399 35.4V15.5C10.6399 14.73 11.2699 14.1 12.0399 14.1Z" fill="#444444"/>
<path d="M8.2699 39.5H51.5499" stroke="#B7B7B7" stroke-width="0.8" stroke-miterlimit="10" stroke-linecap="round"/>
<path d="M51.1599 45.31H8.6599C7.9599 45.31 7.5199 44.86 7.8599 44.5L9.8499 41.09H49.9599L51.9499 44.5C52.2899 44.86 51.8499 45.31 51.1499 45.31H51.1599Z" fill="#BCBCBC"/>
</g>
<defs>
<clipPath id="clip0_3251_29077">
<rect width="53.42" height="38" fill="white" transform="translate(3.19995 11)"/>
</clipPath>
</defs>
</svg>
