<svg width="24" height="24" viewBox="0 0 24 24" fill="none" xmlns="http://www.w3.org/2000/svg">
<path d="M12.4153 20.9023L12.1412 20.3686H12.1412L12.4153 20.9023ZM11.619 20.9023L11.8931 20.3686H11.8931L11.619 20.9023ZM19.3347 10.9175C19.3347 13.5648 17.9711 15.7111 16.3532 17.3264C14.7361 18.9408 12.9173 19.97 12.1412 20.3686L12.6894 21.4361C13.5189 21.0101 15.4598 19.914 17.201 18.1756C18.9413 16.4382 20.5347 14.0043 20.5347 10.9175H19.3347ZM12.0171 3.6C16.0585 3.6 19.3347 6.87617 19.3347 10.9175H20.5347C20.5347 6.21342 16.7212 2.4 12.0171 2.4V3.6ZM4.69961 10.9175C4.69961 6.87617 7.97578 3.6 12.0171 3.6V2.4C7.31303 2.4 3.49961 6.21342 3.49961 10.9175H4.69961ZM11.8931 20.3686C11.1169 19.97 9.29815 18.9408 7.68109 17.3264C6.06315 15.7111 4.69961 13.5648 4.69961 10.9175H3.49961C3.49961 14.0043 5.09293 16.4382 6.83326 18.1756C8.57448 19.914 10.5154 21.0101 11.3449 21.4361L11.8931 20.3686ZM12.1412 20.3686C12.0598 20.4104 11.9744 20.4104 11.8931 20.3686L11.3449 21.4361C11.7703 21.6546 12.2639 21.6546 12.6894 21.4361L12.1412 20.3686ZM14.8103 10.9175C14.8103 12.4601 13.5597 13.7107 12.0171 13.7107V14.9107C14.2225 14.9107 16.0103 13.1229 16.0103 10.9175H14.8103ZM12.0171 8.12425C13.5597 8.12425 14.8103 9.37482 14.8103 10.9175H16.0103C16.0103 8.71208 14.2225 6.92425 12.0171 6.92425V8.12425ZM9.22386 10.9175C9.22386 9.37482 10.4744 8.12425 12.0171 8.12425V6.92425C9.81169 6.92425 8.02386 8.71208 8.02386 10.9175H9.22386ZM12.0171 13.7107C10.4744 13.7107 9.22386 12.4601 9.22386 10.9175H8.02386C8.02386 13.1229 9.81169 14.9107 12.0171 14.9107V13.7107Z" fill="#262626"/>
</svg>
