<svg width="44" height="44" viewBox="0 0 44 44" fill="none" xmlns="http://www.w3.org/2000/svg">
<g clip-path="url(#clip0_5981_45125)">
<rect x="1.69238" y="1.69238" width="40.6154" height="40.6154" rx="20.3077" fill="url(#paint0_linear_5981_45125)"/>
<path d="M35.6005 40.7754C36.1901 40.6525 36.5409 40.0378 36.2819 39.4941C35.2883 37.4083 33.5557 35.5747 31.2718 34.2116C28.6118 32.6241 25.3527 31.7637 21.9999 31.7637C18.6471 31.7637 15.3879 32.6241 12.728 34.2116C10.4441 35.5747 8.71146 37.4083 7.71791 39.494C7.45889 40.0378 7.80961 40.6525 8.39923 40.7754L13.839 41.9091C19.2218 43.0309 24.778 43.0309 30.1607 41.9091L35.6005 40.7754Z" fill="white"/>
<ellipse cx="21.9996" cy="19.9176" rx="8.46154" ry="8.46154" fill="white"/>
<circle cx="22.0001" cy="22.0001" r="19.3077" stroke="url(#paint1_linear_5981_45125)" stroke-width="2"/>
</g>
<defs>
<linearGradient id="paint0_linear_5981_45125" x1="22.0001" y1="1.69238" x2="22.0001" y2="42.3078" gradientUnits="userSpaceOnUse">
<stop stop-color="#AB8DFF"/>
<stop offset="1" stop-color="#8A6CFF"/>
</linearGradient>
<linearGradient id="paint1_linear_5981_45125" x1="22.0001" y1="1.69238" x2="22.0001" y2="42.3078" gradientUnits="userSpaceOnUse">
<stop stop-color="#AB8DFF"/>
<stop offset="1" stop-color="#8A6CFF"/>
</linearGradient>
<clipPath id="clip0_5981_45125">
<rect x="1.69238" y="1.69238" width="40.6154" height="40.6154" rx="20.3077" fill="white"/>
</clipPath>
</defs>
</svg>
