<svg width="24" height="25" viewBox="0 0 24 25" fill="none" xmlns="http://www.w3.org/2000/svg">
<path d="M12.4158 21.2246L12.1417 20.6909H12.1417L12.4158 21.2246ZM11.6195 21.2246L11.8936 20.6909H11.8936L11.6195 21.2246ZM19.3351 11.2398C19.3351 13.8871 17.9716 16.0334 16.3537 17.6487C14.7366 19.2631 12.9178 20.2923 12.1417 20.6909L12.6899 21.7583C13.5194 21.3324 15.4603 20.2362 17.2015 18.4979C18.9418 16.7604 20.5351 14.3266 20.5351 11.2398H19.3351ZM12.0176 3.92227C16.059 3.92227 19.3351 7.19843 19.3351 11.2398H20.5351C20.5351 6.53569 16.7217 2.72227 12.0176 2.72227V3.92227ZM4.7001 11.2398C4.7001 7.19843 7.97626 3.92227 12.0176 3.92227V2.72227C7.31352 2.72227 3.5001 6.53569 3.5001 11.2398H4.7001ZM11.8936 20.6909C11.1174 20.2923 9.29864 19.2631 7.68158 17.6487C6.06364 16.0334 4.7001 13.8871 4.7001 11.2398H3.5001C3.5001 14.3266 5.09342 16.7604 6.83375 18.4979C8.57497 20.2362 10.5159 21.3324 11.3454 21.7583L11.8936 20.6909ZM12.1417 20.6909C12.0603 20.7326 11.9749 20.7326 11.8936 20.6909L11.3454 21.7583C11.7708 21.9768 12.2644 21.9768 12.6899 21.7583L12.1417 20.6909ZM14.8108 11.2397C14.8108 12.7824 13.5602 14.033 12.0176 14.033V15.233C14.223 15.233 16.0108 13.4451 16.0108 11.2397H14.8108ZM12.0176 8.44652C13.5602 8.44652 14.8108 9.69708 14.8108 11.2397H16.0108C16.0108 9.03434 14.223 7.24652 12.0176 7.24652V8.44652ZM9.22435 11.2397C9.22435 9.69708 10.4749 8.44652 12.0176 8.44652V7.24652C9.81218 7.24652 8.02435 9.03434 8.02435 11.2397H9.22435ZM12.0176 14.033C10.4749 14.033 9.22435 12.7824 9.22435 11.2397H8.02435C8.02435 13.4451 9.81218 15.233 12.0176 15.233V14.033Z" fill="#262626"/>
</svg>
