<svg width="48" height="48" viewBox="0 0 48 48" fill="none" xmlns="http://www.w3.org/2000/svg">
<g id="&#236;&#185;&#180;&#235;&#169;&#148;&#235;&#157;&#188; &#236;&#149;&#132;&#236;&#157;&#180;&#236;&#189;&#152;">
<rect width="48" height="48" rx="24" fill="#EF8181"/>
<g id="Camera">
<path id="Rectangle 1" d="M13.5 21.4963C13.5 20.3016 14.4685 19.3332 15.6631 19.3332V19.3332C16.4824 19.3332 17.2315 18.8703 17.5979 18.1374L18.6333 16.0665C18.7755 15.7822 18.8466 15.64 18.9313 15.519C19.2464 15.0693 19.7325 14.7689 20.2756 14.6882C20.4217 14.6665 20.5807 14.6665 20.8986 14.6665H27.1014C27.4193 14.6665 27.5783 14.6665 27.7244 14.6882C28.2675 14.7689 28.7536 15.0693 29.0687 15.519C29.1534 15.64 29.2245 15.7822 29.3667 16.0665L30.4021 18.1374C30.7685 18.8703 31.5176 19.3332 32.3369 19.3332V19.3332C33.5315 19.3332 34.5 20.3016 34.5 21.4963V27.8549C34.5 30.1797 34.5 31.342 33.8904 32.1459C33.7251 32.3639 33.5307 32.5583 33.3127 32.7236C32.5089 33.3332 31.3465 33.3332 29.0217 33.3332H18.9783C16.6535 33.3332 15.4911 33.3332 14.6873 32.7236C14.4693 32.5583 14.2749 32.3639 14.1096 32.1459C13.5 31.342 13.5 30.1797 13.5 27.8549V21.4963Z" stroke="white" stroke-width="1.75"/>
<circle id="Ellipse 55" cx="24.0002" cy="25.1667" r="3.79167" stroke="white" stroke-width="1.75"/>
</g>
</g>
</svg>
