<svg width="320" height="205" viewBox="0 0 320 205" fill="none" xmlns="http://www.w3.org/2000/svg">
<path d="M159.7 198.7C246.243 198.7 316.4 157.958 316.4 107.7C316.4 57.4423 246.243 16.7002 159.7 16.7002C73.157 16.7002 3 57.4423 3 107.7C3 157.958 73.157 198.7 159.7 198.7Z" fill="#F2F2F2" stroke="#CCCCCC" stroke-width="3" stroke-miterlimit="10"/>
<path d="M261.9 33.3999V42.9999" stroke="#BA764B" stroke-width="3" stroke-miterlimit="10" stroke-linecap="round" stroke-linejoin="round"/>
<path d="M262.201 37.8998C266.398 37.8998 269.801 33.736 269.801 28.5998C269.801 23.4635 266.398 19.2998 262.201 19.2998C258.003 19.2998 254.601 23.4635 254.601 28.5998C254.601 33.736 258.003 37.8998 262.201 37.8998Z" fill="#91CF59" stroke="#61B329" stroke-width="3" stroke-miterlimit="10" stroke-linecap="round" stroke-linejoin="round"/>
<path d="M292 54.7002V64.4002" stroke="#BA764B" stroke-width="3" stroke-miterlimit="10" stroke-linecap="round" stroke-linejoin="round"/>
<path d="M292.3 59.3002C296.498 59.3002 299.9 55.1364 299.9 50.0002C299.9 44.8639 296.498 40.7002 292.3 40.7002C288.103 40.7002 284.7 44.8639 284.7 50.0002C284.7 55.1364 288.103 59.3002 292.3 59.3002Z" fill="#91CF59" stroke="#61B329" stroke-width="3" stroke-miterlimit="10" stroke-linecap="round" stroke-linejoin="round"/>
<path d="M24.2002 124.3V134" stroke="#BA764B" stroke-width="3" stroke-miterlimit="10" stroke-linecap="round" stroke-linejoin="round"/>
<path d="M24.5004 128.8C28.6978 128.8 32.1004 124.636 32.1004 119.5C32.1004 114.364 28.6978 110.2 24.5004 110.2C20.303 110.2 16.9004 114.364 16.9004 119.5C16.9004 124.636 20.303 128.8 24.5004 128.8Z" fill="#91CF59" stroke="#61B329" stroke-width="3" stroke-miterlimit="10" stroke-linecap="round" stroke-linejoin="round"/>
<path d="M97 20.7002V30.4002" stroke="#BA764B" stroke-width="3" stroke-miterlimit="10" stroke-linecap="round" stroke-linejoin="round"/>
<path d="M97.3002 25.3002C101.498 25.3002 104.9 21.1364 104.9 16.0002C104.9 10.8639 101.498 6.7002 97.3002 6.7002C93.1028 6.7002 89.7002 10.8639 89.7002 16.0002C89.7002 21.1364 93.1028 25.3002 97.3002 25.3002Z" fill="#91CF59" stroke="#61B329" stroke-width="3" stroke-miterlimit="10" stroke-linecap="round" stroke-linejoin="round"/>
<path d="M87.9004 25.6001V35.3001" stroke="#BA764B" stroke-width="3" stroke-miterlimit="10" stroke-linecap="round" stroke-linejoin="round"/>
<path d="M88.2006 30.1C92.398 30.1 95.8006 25.9362 95.8006 20.8C95.8006 15.6637 92.398 11.5 88.2006 11.5C84.0032 11.5 80.6006 15.6637 80.6006 20.8C80.6006 25.9362 84.0032 30.1 88.2006 30.1Z" fill="#91CF59" stroke="#61B329" stroke-width="3" stroke-miterlimit="10" stroke-linecap="round" stroke-linejoin="round"/>
<path d="M261.8 91.1001V100.8" stroke="#BA764B" stroke-width="3" stroke-miterlimit="10" stroke-linecap="round" stroke-linejoin="round"/>
<path d="M262.1 95.6C266.297 95.6 269.7 91.4362 269.7 86.3C269.7 81.1637 266.297 77 262.1 77C257.903 77 254.5 81.1637 254.5 86.3C254.5 91.4362 257.903 95.6 262.1 95.6Z" fill="#91CF59" stroke="#61B329" stroke-width="3" stroke-miterlimit="10" stroke-linecap="round" stroke-linejoin="round"/>
<path d="M60.7998 64.3003V73.9003" stroke="#BA764B" stroke-width="3" stroke-miterlimit="10" stroke-linecap="round" stroke-linejoin="round"/>
<path d="M61.1 68.8002C65.2974 68.8002 68.7 64.6364 68.7 59.5002C68.7 54.3639 65.2974 50.2002 61.1 50.2002C56.9026 50.2002 53.5 54.3639 53.5 59.5002C53.5 64.6364 56.9026 68.8002 61.1 68.8002Z" fill="#91CF59" stroke="#61B329" stroke-width="3" stroke-miterlimit="10" stroke-linecap="round" stroke-linejoin="round"/>
<path d="M222.3 137.1V146.7" stroke="#BA764B" stroke-width="3" stroke-miterlimit="10" stroke-linecap="round" stroke-linejoin="round"/>
<path d="M222.6 141.6C226.797 141.6 230.2 137.436 230.2 132.3C230.2 127.164 226.797 123 222.6 123C218.403 123 215 127.164 215 132.3C215 137.436 218.403 141.6 222.6 141.6Z" fill="#91CF59" stroke="#61B329" stroke-width="3" stroke-miterlimit="10" stroke-linecap="round" stroke-linejoin="round"/>
<path d="M109 32.6001H72.5V55.4001H109V32.6001Z" fill="#FAE3D7" stroke="#CFB4A6" stroke-width="3" stroke-miterlimit="10" stroke-linecap="round" stroke-linejoin="round"/>
<path d="M113.3 37.6H68.2998L74.8998 23H105.4L113.3 37.6Z" fill="#FA5544" stroke="#E83F3F" stroke-width="3" stroke-miterlimit="10" stroke-linecap="round" stroke-linejoin="round"/>
<path d="M87.2996 47.1C87.2996 45.1 85.4996 43.5 83.1996 43.5C80.9996 43.5 79.1996 45.1 79.0996 47.1V53.9H87.2996V47.1Z" fill="#B39F95"/>
<path d="M234.3 139.1V148.7" stroke="#BA764B" stroke-width="3" stroke-miterlimit="10" stroke-linecap="round" stroke-linejoin="round"/>
<path d="M234.6 143.6C238.797 143.6 242.2 139.436 242.2 134.3C242.2 129.164 238.797 125 234.6 125C230.403 125 227 129.164 227 134.3C227 139.436 230.403 143.6 234.6 143.6Z" fill="#91CF59" stroke="#61B329" stroke-width="3" stroke-miterlimit="10" stroke-linecap="round" stroke-linejoin="round"/>
<path d="M211.999 51.1001V60.8001" stroke="#BA764B" stroke-width="3" stroke-miterlimit="10" stroke-linecap="round" stroke-linejoin="round"/>
<path d="M212.299 55.6C216.497 55.6 219.899 51.4362 219.899 46.3C219.899 41.1637 216.497 37 212.299 37C208.102 37 204.699 41.1637 204.699 46.3C204.699 51.4362 208.102 55.6 212.299 55.6Z" fill="#91CF59" stroke="#61B329" stroke-width="3" stroke-miterlimit="10" stroke-linecap="round" stroke-linejoin="round"/>
<path d="M98.8994 94.7998V104.5" stroke="#BA764B" stroke-width="3" stroke-miterlimit="10" stroke-linecap="round" stroke-linejoin="round"/>
<path d="M99.2992 99.3998C103.497 99.3998 106.899 95.236 106.899 90.0998C106.899 84.9635 103.497 80.7998 99.2992 80.7998C95.1019 80.7998 91.6992 84.9635 91.6992 90.0998C91.6992 95.236 95.1019 99.3998 99.2992 99.3998Z" fill="#91CF59" stroke="#61B329" stroke-width="3" stroke-miterlimit="10" stroke-linecap="round" stroke-linejoin="round"/>
<path d="M223.299 59.7998V69.4998" stroke="#BA764B" stroke-width="3" stroke-miterlimit="10" stroke-linecap="round" stroke-linejoin="round"/>
<path d="M223.599 64.3002C227.796 64.3002 231.199 60.1364 231.199 55.0002C231.199 49.8639 227.796 45.7002 223.599 45.7002C219.402 45.7002 215.999 49.8639 215.999 55.0002C215.999 60.1364 219.402 64.3002 223.599 64.3002Z" fill="#91CF59" stroke="#61B329" stroke-width="3" stroke-miterlimit="10" stroke-linecap="round" stroke-linejoin="round"/>
<path d="M222.999 68.6001H186.499V91.4001H222.999V68.6001Z" fill="#FAE3D7" stroke="#CFB4A6" stroke-width="3" stroke-miterlimit="10" stroke-linecap="round" stroke-linejoin="round"/>
<path d="M227.299 73.6H182.299L188.899 59H219.399L227.299 73.6Z" fill="#FA5544" stroke="#E83F3F" stroke-width="3" stroke-miterlimit="10" stroke-linecap="round" stroke-linejoin="round"/>
<path d="M201.299 83.1C201.299 81.1 199.499 79.5 197.199 79.5C194.999 79.5 193.199 81.1 193.099 83.1V89.9H201.299V83.1Z" fill="#B39F95"/>
<path d="M130.572 70.8998H123.972L121.372 73.2998L121.072 77.4998L124.872 82.4998L137.372 86.9998L145.572 89.7998L147.572 89.2998L146.372 94.1998C146.372 94.1998 145.372 95.8998 145.372 97.1998C145.372 98.4998 148.672 103.3 148.672 103.3C148.672 103.3 155.272 103.6 155.472 103.1C155.672 102.6 157.072 100.3 157.072 100.3C157.072 100.3 164.772 101.2 165.372 101.2C165.972 101.2 169.372 99.4998 169.372 99.4998L169.072 101.9C169.072 101.9 171.672 103.3 173.072 103.5C174.472 103.7 177.072 104 177.272 103.5C177.472 103 179.572 100.5 179.572 100.5L179.872 98.5998L179.372 92.0998L180.872 90.8998C180.872 90.8998 182.472 91.0998 184.172 90.8998C185.872 90.6998 192.472 89.8998 192.472 89.8998L196.472 82.8998L194.572 80.5998L188.472 78.6998L185.572 76.9998L164.972 76.3998L132.272 70.7998H130.572" fill="#FFDB66"/>
<path d="M131.072 27.4L128.672 17.5L133.572 6.20001L138.272 5.70001L142.972 5.5C142.972 5.5 145.572 7.20001 146.072 7.60001C146.572 8.00001 150.072 11.8 150.072 11.8L151.672 15.5C151.672 15.5 148.672 17.8 147.972 17.9C147.272 18 141.672 19.6 141.672 19.6L137.672 23.3L135.772 24.7L131.072 27.4Z" fill="#262626"/>
<path d="M173.372 15.9L176.472 9.79999L182.872 6L189.372 5.5L192.872 9.09998L195.472 13.3L195.972 18.2L195.772 24.4L192.972 27.2L182.372 20.4L173.372 15.9Z" fill="#262626"/>
<path d="M193.172 28.6C192.372 28.6 191.772 28 191.672 27.3C191.572 26.5 192.172 25.7 192.972 25.6C193.772 25.5 194.672 23.7 194.972 19.9C195.172 17.5 194.672 15 193.572 12.6C191.972 9.09999 188.672 5.70002 184.572 6.70002C180.872 7.60002 177.472 11.4 175.772 14.7C175.372 15.4 174.472 15.7 173.772 15.4C173.072 15 172.772 14.1 173.072 13.4C174.972 9.70004 178.872 5 183.772 3.8C189.672 2.4 194.172 7 196.172 11.3C197.472 14.2 198.072 17.2 197.872 20.1C197.372 26.7 195.072 28.3 193.172 28.6C193.272 28.6 193.272 28.6 193.172 28.6Z" fill="#262626"/>
<path d="M143.472 9.7002C143.472 9.7002 146.972 12.8002 144.372 17.8002" stroke="white" stroke-width="3" stroke-miterlimit="10" stroke-linecap="round" stroke-linejoin="round"/>
<path d="M181.572 9.7002C181.572 9.7002 178.072 12.8002 180.672 17.8002" stroke="white" stroke-width="3" stroke-miterlimit="10" stroke-linecap="round" stroke-linejoin="round"/>
<path d="M132.271 27.9003C129.771 27.8003 128.271 25.0003 127.871 19.6003C127.571 16.0003 128.471 12.4003 130.271 9.50032C132.971 5.50032 138.071 2.3003 143.571 4.3003C148.271 6.0003 150.871 10.2003 152.671 13.0003C153.071 13.7003 152.871 14.6003 152.171 15.1003C151.471 15.5003 150.571 15.3003 150.071 14.6003C148.571 12.2003 146.171 8.50033 142.471 7.20033C138.571 5.80033 134.771 8.20033 132.771 11.2003C131.271 13.5003 130.571 16.5003 130.871 19.4003C131.171 23.2003 132.071 24.8003 132.371 25.0003C133.171 25.0003 133.871 25.7003 133.771 26.6003C133.771 27.3003 133.071 27.9003 132.271 27.9003Z" fill="#262626"/>
<path d="M162.272 14.2998C185.172 14.2998 206.972 34.2998 200.472 58.3998C199.872 60.7998 198.872 63.0998 197.672 65.2998C194.072 71.9998 188.172 77.3998 181.372 80.7998C172.572 85.1998 162.272 86.4998 152.672 84.2998C140.972 81.5998 130.272 73.8998 125.672 62.6998C121.172 51.6998 122.872 37.5998 130.872 28.5998C138.472 19.9998 149.772 14.6998 161.272 14.3998C161.672 14.2998 161.972 14.2998 162.272 14.2998Z" fill="#FFDB66"/>
<path d="M162.272 14.2998C185.172 14.2998 206.972 34.2998 200.472 58.3998C199.872 60.7998 198.872 63.0998 197.672 65.2998C194.072 71.9998 188.172 77.3998 181.372 80.7998C172.572 85.1998 162.272 86.4998 152.672 84.2998C140.972 81.5998 130.272 73.8998 125.672 62.6998C121.172 51.6998 122.872 37.5998 130.872 28.5998C138.472 19.9998 149.772 14.6998 161.272 14.3998C161.672 14.2998 161.972 14.2998 162.272 14.2998Z" stroke="#FFC656" stroke-width="3" stroke-linecap="round" stroke-linejoin="round"/>
<path d="M151.772 104.9C150.772 104.9 149.872 104.7 148.972 104.4C146.872 103.7 145.372 102.5 144.672 100.8C143.772 98.8002 143.872 96.1002 145.172 92.9002L146.172 90.6001C146.472 89.8001 147.372 89.5002 148.172 89.8002C148.972 90.1002 149.272 91.0002 148.972 91.8002L147.972 94.1001C147.072 96.5001 146.872 98.3001 147.472 99.6001C147.872 100.5 148.772 101.2 150.072 101.6C151.972 102.2 154.572 101.9 155.572 99.9002C155.972 99.2002 156.872 98.9002 157.572 99.3002C158.272 99.7002 158.572 100.6 158.172 101.3C156.772 103.9 154.172 104.9 151.772 104.9Z" fill="#FFC656"/>
<path d="M174.272 105C171.372 105 168.972 103.7 167.772 101.5C167.372 100.8 167.672 99.9001 168.372 99.5001C169.072 99.1001 169.972 99.4001 170.372 100.1C171.072 101.4 172.572 102.2 174.372 102.1C176.272 102.1 178.072 101.1 178.772 99.7001C179.172 98.8001 178.972 97.0001 178.172 94.8001C177.872 94.5001 177.572 94.1001 177.572 93.6001C177.572 92.8001 178.272 92.1001 179.072 92.1001H179.272C179.872 92.1001 180.472 92.5001 180.672 93.0001C182.072 96.5001 182.272 99.2001 181.372 101C180.172 103.4 177.472 105 174.372 105H174.272Z" fill="#FFC656"/>
<path d="M162.872 32.9002C162.672 32.9002 162.472 32.9001 162.272 32.7001C161.672 32.4001 161.472 31.6001 161.772 31.0001L163.972 27.0001L160.272 26.5001C159.872 26.4001 159.472 26.1001 159.272 25.7001C159.072 25.3001 159.172 24.8001 159.472 24.5001L163.472 19.6001C163.872 19.1001 164.672 19.0002 165.272 19.4002C165.772 19.8002 165.872 20.6001 165.472 21.2001L162.872 24.4002L166.172 24.8001C166.572 24.9001 166.972 25.1001 167.072 25.5001C167.272 25.9001 167.272 26.3001 167.072 26.7001L164.072 32.3001C163.672 32.7001 163.272 32.9002 162.872 32.9002Z" fill="#262626"/>
<path d="M168.971 25.8001C168.471 25.8001 168.071 25.5001 167.871 25.1001C167.571 24.5001 167.771 23.7001 168.471 23.4001L169.471 22.9001C170.071 22.6001 170.871 22.8001 171.171 23.5001C171.471 24.1001 171.271 24.9001 170.571 25.2001L169.571 25.7001C169.371 25.7001 169.171 25.8001 168.971 25.8001Z" fill="#262626"/>
<path d="M157.172 30.4C156.872 30.4 156.572 30.3 156.272 30C155.772 29.6 155.772 28.8 156.172 28.4C156.172 28.1 156.272 27.8 156.572 27.5C157.072 27 157.872 27 158.372 27.5L158.572 27.7C159.072 28.2 159.072 29 158.572 29.5L158.072 30C157.872 30.2 157.572 30.4 157.172 30.4Z" fill="#262626"/>
<path d="M157.173 22.6998C156.773 22.6998 156.473 22.4998 156.173 22.1998C155.773 21.6998 155.873 20.8998 156.373 20.3998C156.573 20.2998 156.773 20.0998 157.073 19.9998C157.173 19.8998 157.473 19.7998 157.573 19.6998C157.773 19.0998 158.373 18.7998 158.973 18.8998C159.673 18.9998 160.073 19.6998 159.973 20.3998C159.773 21.2998 158.973 21.7998 158.373 22.1998C158.273 22.2998 158.073 22.3998 157.973 22.3998C157.773 22.5998 157.473 22.6998 157.173 22.6998Z" fill="#262626"/>
<path d="M166.373 33.8997C165.973 33.8997 165.573 33.6997 165.273 33.2997C164.873 32.6997 165.073 31.8997 165.673 31.5997L168.173 30.0997C168.773 29.6997 169.573 29.8997 169.873 30.4997C170.273 31.0997 170.073 31.8997 169.473 32.1997L166.973 33.6997C166.873 33.8997 166.673 33.8997 166.373 33.8997Z" fill="#262626"/>
<path d="M168.772 21.7C168.572 21.7 168.372 21.6 168.172 21.5L167.372 21C166.772 20.6 166.572 19.9 166.972 19.3C167.372 18.7 168.072 18.5 168.672 18.9L169.472 19.4C170.072 19.8 170.272 20.5 169.872 21.1C169.572 21.5 169.172 21.7 168.772 21.7Z" fill="#262626"/>
<path d="M162.872 102.2C158.972 102.2 154.972 101.2 151.472 99.1002C148.472 97.3002 146.472 94.1002 145.572 89.8002C144.772 89.7002 143.972 89.6002 143.172 89.5002C142.372 89.4002 141.572 89.3002 140.772 89.2002H140.472C136.272 88.5002 132.072 87.9002 128.172 86.1002C126.372 85.3002 122.072 83.0002 120.172 79.6002C118.972 77.6002 118.672 75.3002 119.372 73.3002C119.872 71.7002 120.972 70.5002 122.472 69.7002C124.572 68.7002 127.472 68.7002 130.172 69.7002C130.972 70.0002 131.372 70.8002 131.072 71.6002C130.772 72.4002 129.972 72.8002 129.172 72.5002C127.272 71.8002 125.172 71.8002 123.772 72.4002C122.972 72.8002 122.472 73.4002 122.172 74.2002C121.772 75.4002 121.972 76.8002 122.672 78.0002C123.772 79.8002 126.172 81.8002 129.372 83.2002C132.872 84.8002 136.972 85.4002 140.972 86.1002H141.272C142.072 86.2002 142.872 86.3002 143.572 86.4002C144.472 86.5002 145.272 86.6002 146.172 86.8002H146.472C147.872 87.0002 148.172 87.6002 148.472 88.7002L148.572 88.9002C149.372 92.5002 150.872 95.0002 153.172 96.4002C159.272 99.9002 166.772 99.9002 172.872 96.4002C175.272 94.9002 177.572 91.8002 177.972 90.0002C178.372 88.5002 179.672 88.6002 183.172 88.9002C183.372 88.9002 183.472 88.9002 183.572 88.9002C186.972 89.1002 189.772 89.1002 192.172 87.8002C194.172 86.8002 195.072 84.3002 194.272 82.3002C192.972 79.0002 187.272 79.7002 186.172 79.9002C185.372 80.0002 184.572 79.5002 184.472 78.6002C184.372 77.8002 184.872 77.0002 185.772 76.9002C187.872 76.6002 195.072 75.9002 197.172 81.2002C198.572 84.7002 197.072 88.8002 193.672 90.5002C190.372 92.3002 186.572 92.1002 183.472 91.9002C183.372 91.9002 183.172 91.9002 182.972 91.9002C181.772 91.8002 181.072 91.8002 180.572 91.7002C179.572 94.3002 177.072 97.4002 174.372 99.0002C170.772 101.2 166.772 102.2 162.872 102.2Z" fill="#FFC656"/>
<path d="M167.472 47.2002C165.572 47.2002 163.872 47.9002 162.672 49.0002C161.472 47.9002 159.772 47.2002 157.872 47.2002C154.072 47.2002 150.972 50.0002 150.972 53.5002C150.972 57.0002 154.072 59.8002 157.872 59.8002C159.772 59.8002 161.472 59.1002 162.672 58.0002C163.872 59.1002 165.572 59.8002 167.472 59.8002C171.272 59.8002 174.372 57.0002 174.372 53.5002C174.372 50.0002 171.272 47.2002 167.472 47.2002Z" fill="white" stroke="#E3DDD8" stroke-width="3" stroke-linecap="round" stroke-linejoin="round"/>
<path d="M147.872 45.5998C149.473 45.5998 150.772 44.3015 150.772 42.6998C150.772 41.0982 149.473 39.7998 147.872 39.7998C146.27 39.7998 144.972 41.0982 144.972 42.6998C144.972 44.3015 146.27 45.5998 147.872 45.5998Z" fill="#262626"/>
<path d="M176.972 45.5998C178.574 45.5998 179.872 44.3015 179.872 42.6998C179.872 41.0982 178.574 39.7998 176.972 39.7998C175.371 39.7998 174.072 41.0982 174.072 42.6998C174.072 44.3015 175.371 45.5998 176.972 45.5998Z" fill="#262626"/>
<path d="M162.572 50.4998C164.174 50.4998 165.472 49.3358 165.472 47.8998C165.472 46.4639 164.174 45.2998 162.572 45.2998C160.97 45.2998 159.672 46.4639 159.672 47.8998C159.672 49.3358 160.97 50.4998 162.572 50.4998Z" fill="#262626"/>
</svg>
