<svg width="24" height="24" viewBox="0 0 24 24" fill="none" xmlns="http://www.w3.org/2000/svg">
<path d="M7 7.61874V7.61874C7 5.48421 7 4.41695 7.68035 3.81953C7.69 3.81106 7.69973 3.80268 7.70954 3.7944C8.40128 3.21019 9.45673 3.36851 11.5676 3.68515L13.89 4.03351C16.3276 4.39915 17.5464 4.58197 18.2732 5.42589C19 6.26982 19 7.50225 19 9.96712V14.0329C19 16.4977 19 17.7302 18.2732 18.5741C17.5464 19.418 16.3276 19.6009 13.89 19.9665L11.3915 20.3413C9.44965 20.6326 8.47873 20.7782 7.81304 20.2873C7.7319 20.2275 7.6554 20.1616 7.58419 20.0902C7 19.5047 7 18.5229 7 16.5594V16.5594" stroke="#262626" stroke-width="1.5" stroke-linecap="round"/>
<path d="M11.3333 8L15 12M15 12L11.3333 16M15 12H4" stroke="#262626" stroke-width="1.5" stroke-linecap="round" stroke-linejoin="round"/>
</svg>
